<svg width="258" height="135" viewBox="0 0 258 135" fill="none" xmlns="http://www.w3.org/2000/svg">
<path d="M158.916 55.2761H151.132L149.844 59.0001H145.728L152.756 39.4281H157.32L164.348 59.0001H160.204L158.916 55.2761ZM157.852 52.1401L155.024 43.9641L152.196 52.1401H157.852ZM171.539 46.7081V54.2121C171.539 54.7348 171.66 55.1175 171.903 55.3601C172.164 55.5841 172.594 55.6961 173.191 55.6961H175.011V59.0001H172.547C169.243 59.0001 167.591 57.3948 167.591 54.1841V46.7081H165.743V43.4881H167.591V39.6521H171.539V43.4881H175.011V46.7081H171.539ZM193.238 43.2641C194.414 43.2641 195.46 43.5255 196.374 44.0481C197.289 44.5521 197.998 45.3081 198.502 46.3161C199.025 47.3055 199.286 48.5001 199.286 49.9001V59.0001H195.366V50.4321C195.366 49.2001 195.058 48.2575 194.442 47.6041C193.826 46.9321 192.986 46.5961 191.922 46.5961C190.84 46.5961 189.981 46.9321 189.346 47.6041C188.73 48.2575 188.422 49.2001 188.422 50.4321V59.0001H184.502V38.2801H188.422V45.4201C188.926 44.7481 189.598 44.2255 190.438 43.8521C191.278 43.4601 192.212 43.2641 193.238 43.2641ZM202.006 51.1881C202.006 49.6201 202.314 48.2295 202.93 47.0161C203.565 45.8028 204.414 44.8695 205.478 44.2161C206.561 43.5628 207.765 43.2361 209.09 43.2361C210.247 43.2361 211.255 43.4695 212.114 43.9361C212.991 44.4028 213.691 44.9908 214.214 45.7001V43.4881H218.162V59.0001H214.214V56.7321C213.71 57.4601 213.01 58.0668 212.114 58.5521C211.237 59.0188 210.219 59.2521 209.062 59.2521C207.755 59.2521 206.561 58.9161 205.478 58.2441C204.414 57.5721 203.565 56.6295 202.93 55.4161C202.314 54.1841 202.006 52.7748 202.006 51.1881ZM214.214 51.2441C214.214 50.2921 214.027 49.4801 213.654 48.8081C213.281 48.1175 212.777 47.5948 212.142 47.2401C211.507 46.8668 210.826 46.6801 210.098 46.6801C209.37 46.6801 208.698 46.8575 208.082 47.2121C207.466 47.5668 206.962 48.0895 206.57 48.7801C206.197 49.4521 206.01 50.2548 206.01 51.1881C206.01 52.1215 206.197 52.9428 206.57 53.6521C206.962 54.3428 207.466 54.8748 208.082 55.2481C208.717 55.6215 209.389 55.8081 210.098 55.8081C210.826 55.8081 211.507 55.6308 212.142 55.2761C212.777 54.9028 213.281 54.3801 213.654 53.7081C214.027 53.0175 214.214 52.1961 214.214 51.2441ZM230.587 43.2641C232.435 43.2641 233.928 43.8521 235.067 45.0281C236.205 46.1855 236.775 47.8095 236.775 49.9001V59.0001H232.855V50.4321C232.855 49.2001 232.547 48.2575 231.931 47.6041C231.315 46.9321 230.475 46.5961 229.411 46.5961C228.328 46.5961 227.469 46.9321 226.835 47.6041C226.219 48.2575 225.911 49.2001 225.911 50.4321V59.0001H221.991V43.4881H225.911V45.4201C226.433 44.7481 227.096 44.2255 227.899 43.8521C228.72 43.4601 229.616 43.2641 230.587 43.2641ZM239.494 51.1881C239.494 49.6201 239.802 48.2295 240.418 47.0161C241.053 45.8028 241.912 44.8695 242.994 44.2161C244.077 43.5628 245.281 43.2361 246.606 43.2361C247.614 43.2361 248.576 43.4601 249.49 43.9081C250.405 44.3375 251.133 44.9161 251.674 45.6441V38.2801H255.65V59.0001H251.674V56.7041C251.189 57.4695 250.508 58.0855 249.63 58.5521C248.753 59.0188 247.736 59.2521 246.578 59.2521C245.272 59.2521 244.077 58.9161 242.994 58.2441C241.912 57.5721 241.053 56.6295 240.418 55.4161C239.802 54.1841 239.494 52.7748 239.494 51.1881ZM251.702 51.2441C251.702 50.2921 251.516 49.4801 251.142 48.8081C250.769 48.1175 250.265 47.5948 249.63 47.2401C248.996 46.8668 248.314 46.6801 247.586 46.6801C246.858 46.6801 246.186 46.8575 245.57 47.2121C244.954 47.5668 244.45 48.0895 244.058 48.7801C243.685 49.4521 243.498 50.2548 243.498 51.1881C243.498 52.1215 243.685 52.9428 244.058 53.6521C244.45 54.3428 244.954 54.8748 245.57 55.2481C246.205 55.6215 246.877 55.8081 247.586 55.8081C248.314 55.8081 248.996 55.6308 249.63 55.2761C250.265 54.9028 250.769 54.3801 251.142 53.7081C251.516 53.0175 251.702 52.1961 251.702 51.2441Z" fill="#292E37"/>
<g filter="url(#filter0_d_1_1627)">
<circle cx="65" cy="50.0001" r="50" fill="#FFC700"/>
</g>
<g clip-path="url(#clip0_1_1627)">
<path d="M83.1798 53.9451C82.8159 53.0452 81.7913 52.6103 80.8913 52.9743C79.9912 53.3382 79.5565 54.3627 79.9203 55.2628L81.9906 60.3838L75.842 57.6734C75.3969 57.4772 74.8904 57.4741 74.443 57.665C72.3417 58.5616 70.0907 59.0162 67.7524 59.0162C58.3418 59.0162 52.0201 51.6479 52.0201 44.7659C52.0201 36.9084 59.0776 30.5157 67.7524 30.5157C76.4273 30.5157 83.4848 36.9084 83.4848 44.7659C83.4848 45.379 83.4277 46.113 83.3283 46.7798C83.185 47.74 83.8473 48.6344 84.8075 48.7777C85.7678 48.9213 86.6622 48.2587 86.8054 47.2985C86.9312 46.4556 87.0004 45.5562 87.0004 44.7659C87.0004 39.9909 84.9784 35.5104 81.3066 32.1499C77.6783 28.829 72.8647 27.0001 67.7524 27.0001C62.6402 27.0001 57.8266 28.829 54.1982 32.1498C50.9171 35.1528 48.9547 39.0506 48.574 43.2534C44.447 45.9865 42.0005 50.366 42.0005 55.0833C42.0005 58.0301 42.9289 60.8261 44.6961 63.2323L42.1287 69.5834C41.8605 70.2466 42.0211 71.0063 42.5348 71.5042C42.8696 71.8289 43.3107 72.0001 43.7587 72.0001C43.998 72 44.2394 71.9513 44.4674 71.8507L51.8703 68.5873C53.7325 69.2805 55.701 69.6315 57.7328 69.6315C57.7768 69.6315 57.8199 69.6281 57.8631 69.6249C60.8019 69.6027 63.6589 68.8297 66.1334 67.3831C68.3498 66.0872 70.173 64.3071 71.4512 62.2048C72.6992 61.9807 73.9189 61.6421 75.1028 61.1896L84.5335 65.3468C84.7616 65.4473 85.0029 65.4962 85.2422 65.4962C85.6902 65.4961 86.1314 65.3249 86.4662 65.0004C86.9799 64.5024 87.1405 63.7428 86.8723 63.0795L83.1798 53.9451ZM57.733 66.1114C57.709 66.1114 57.6856 66.114 57.6618 66.115C55.8669 66.1058 54.1394 65.753 52.526 65.0647C52.0787 64.8737 51.5722 64.8768 51.1271 65.073L47.0106 66.8876L48.3385 63.6027C48.584 62.9955 48.4714 62.302 48.0465 61.8036C46.3911 59.8615 45.5162 57.5378 45.5162 55.0833C45.5162 52.2743 46.6979 49.6127 48.7654 47.5945C49.4091 51.1036 51.2254 54.4603 53.9652 57.0972C57.3745 60.3784 61.8842 62.2793 66.7537 62.5081C64.4675 64.7586 61.1959 66.1114 57.733 66.1114Z" fill="white"/>
<path d="M67.6641 46.5997C68.6349 46.5997 69.4219 45.8127 69.4219 44.8419C69.4219 43.8711 68.6349 43.0841 67.6641 43.0841C66.6932 43.0841 65.9062 43.8711 65.9062 44.8419C65.9062 45.8127 66.6932 46.5997 67.6641 46.5997Z" fill="white"/>
<path d="M74.6953 46.5997C75.6661 46.5997 76.4531 45.8127 76.4531 44.8419C76.4531 43.8711 75.6661 43.0841 74.6953 43.0841C73.7245 43.0841 72.9375 43.8711 72.9375 44.8419C72.9375 45.8127 73.7245 46.5997 74.6953 46.5997Z" fill="white"/>
<path d="M60.6333 46.5997C61.6041 46.5997 62.3911 45.8127 62.3911 44.8419C62.3911 43.8711 61.6041 43.0841 60.6333 43.0841C59.6625 43.0841 58.8755 43.8711 58.8755 44.8419C58.8755 45.8127 59.6625 46.5997 60.6333 46.5997Z" fill="white"/>
</g>
<defs>
<filter id="filter0_d_1_1627" x="0" y="0.00012207" width="130" height="135" filterUnits="userSpaceOnUse" color-interpolation-filters="sRGB">
<feFlood flood-opacity="0" result="BackgroundImageFix"/>
<feColorMatrix in="SourceAlpha" type="matrix" values="0 0 0 0 0 0 0 0 0 0 0 0 0 0 0 0 0 0 127 0" result="hardAlpha"/>
<feMorphology radius="20" operator="erode" in="SourceAlpha" result="effect1_dropShadow_1_1627"/>
<feOffset dy="20"/>
<feGaussianBlur stdDeviation="17.5"/>
<feColorMatrix type="matrix" values="0 0 0 0 0.979167 0 0 0 0 0.764134 0 0 0 0 0 0 0 0 0.4 0"/>
<feBlend mode="normal" in2="BackgroundImageFix" result="effect1_dropShadow_1_1627"/>
<feBlend mode="normal" in="SourceGraphic" in2="effect1_dropShadow_1_1627" result="shape"/>
</filter>
<clipPath id="clip0_1_1627">
<rect width="45" height="45" fill="white" transform="translate(42 27.0001)"/>
</clipPath>
</defs>
</svg>
