<svg width="161" height="64" viewBox="0 0 161 64" fill="none" xmlns="http://www.w3.org/2000/svg">
<g id="bg lines">
<path id="line" d="M158.076 39.0765C157.79 42.2129 155.473 45.1074 151.307 47.6328C147.152 50.1519 141.248 52.245 134.002 53.8034C119.515 56.9189 99.7746 57.8732 78.2225 55.9131C56.6704 53.953 37.4265 49.4532 23.739 43.7753C16.8924 40.9352 11.4634 37.8114 7.83084 34.584C4.18914 31.3485 2.43163 28.0834 2.71688 24.947C3.00213 21.8106 5.31983 18.9162 9.48547 16.3907C13.6406 13.8716 19.5441 11.7785 26.7908 10.2201C41.278 7.10466 61.018 6.15031 82.57 8.11042C104.122 10.0705 123.366 14.5704 137.054 20.2483C143.9 23.0884 149.329 26.2122 152.962 29.4395C156.603 32.675 158.361 35.9401 158.076 39.0765Z" stroke="#C3E3F8" stroke-opacity="0.8"/>
<path id="line_2" d="M157.495 24.5267C157.796 27.6769 156.069 30.9603 152.476 34.2183C148.892 37.4687 143.526 40.6212 136.752 43.4939C123.21 49.2368 104.151 53.816 82.7888 55.8541C61.4264 57.8922 41.8453 56.9995 27.4618 53.9208C20.267 52.3809 14.4015 50.2999 10.2674 47.7859C6.1237 45.266 3.80712 42.3684 3.50657 39.2181C3.20601 36.0678 4.93288 32.7844 8.52534 29.5265C12.1095 26.2761 17.4757 23.1235 24.2495 20.2509C37.7914 14.508 56.8504 9.92877 78.2128 7.89067C99.5752 5.85257 119.156 6.74529 133.54 9.82394C140.735 11.3639 146.6 13.4448 150.734 15.9589C154.878 18.4788 157.194 21.3764 157.495 24.5267Z" stroke="#C3E3F8"/>
</g>
</svg>
