<svg width="329" height="455" viewBox="0 0 329 455" fill="none" xmlns="http://www.w3.org/2000/svg">
<rect x="0.5" y="0.5" width="328" height="438" rx="7.5" fill="white" stroke="#DCDCDC"/>
<g filter="url(#filter0_d_1_1427)">
<rect x="79" y="355" width="190" height="62" rx="8" fill="url(#paint0_linear_1_1427)"/>
</g>
<path d="M124.177 384.168C123.953 383.757 123.645 383.445 123.253 383.23C122.861 383.015 122.404 382.908 121.881 382.908C121.303 382.908 120.789 383.039 120.341 383.3C119.893 383.561 119.543 383.935 119.291 384.42C119.039 384.905 118.913 385.465 118.913 386.1C118.913 386.753 119.039 387.323 119.291 387.808C119.553 388.293 119.912 388.667 120.369 388.928C120.827 389.189 121.359 389.32 121.965 389.32C122.712 389.32 123.323 389.124 123.799 388.732C124.275 388.331 124.588 387.775 124.737 387.066H121.377V385.568H126.669V387.276C126.539 387.957 126.259 388.587 125.829 389.166C125.4 389.745 124.845 390.211 124.163 390.566C123.491 390.911 122.735 391.084 121.895 391.084C120.953 391.084 120.099 390.874 119.333 390.454C118.577 390.025 117.98 389.432 117.541 388.676C117.112 387.92 116.897 387.061 116.897 386.1C116.897 385.139 117.112 384.28 117.541 383.524C117.98 382.759 118.577 382.166 119.333 381.746C120.099 381.317 120.948 381.102 121.881 381.102C122.983 381.102 123.939 381.373 124.751 381.914C125.563 382.446 126.123 383.197 126.431 384.168H124.177ZM135.329 386.954C135.329 387.234 135.311 387.486 135.273 387.71H129.603C129.65 388.27 129.846 388.709 130.191 389.026C130.537 389.343 130.961 389.502 131.465 389.502C132.193 389.502 132.711 389.189 133.019 388.564H135.133C134.909 389.311 134.48 389.927 133.845 390.412C133.211 390.888 132.431 391.126 131.507 391.126C130.761 391.126 130.089 390.963 129.491 390.636C128.903 390.3 128.441 389.829 128.105 389.222C127.779 388.615 127.615 387.915 127.615 387.122C127.615 386.319 127.779 385.615 128.105 385.008C128.432 384.401 128.889 383.935 129.477 383.608C130.065 383.281 130.742 383.118 131.507 383.118C132.245 383.118 132.903 383.277 133.481 383.594C134.069 383.911 134.522 384.364 134.839 384.952C135.166 385.531 135.329 386.198 135.329 386.954ZM133.299 386.394C133.29 385.89 133.108 385.489 132.753 385.19C132.399 384.882 131.965 384.728 131.451 384.728C130.966 384.728 130.555 384.877 130.219 385.176C129.893 385.465 129.692 385.871 129.617 386.394H133.299ZM139.042 384.854V388.606C139.042 388.867 139.103 389.059 139.224 389.18C139.355 389.292 139.569 389.348 139.868 389.348H140.778V391H139.546C137.894 391 137.068 390.197 137.068 388.592V384.854H136.144V383.244H137.068V381.326H139.042V383.244H140.778V384.854H139.042ZM148.898 391.098C148.216 391.098 147.6 390.981 147.05 390.748C146.508 390.515 146.079 390.179 145.762 389.74C145.444 389.301 145.281 388.783 145.272 388.186H147.372C147.4 388.587 147.54 388.905 147.792 389.138C148.053 389.371 148.408 389.488 148.856 389.488C149.313 389.488 149.672 389.381 149.934 389.166C150.195 388.942 150.326 388.653 150.326 388.298C150.326 388.009 150.237 387.771 150.06 387.584C149.882 387.397 149.658 387.253 149.388 387.15C149.126 387.038 148.762 386.917 148.296 386.786C147.661 386.599 147.143 386.417 146.742 386.24C146.35 386.053 146.009 385.778 145.72 385.414C145.44 385.041 145.3 384.546 145.3 383.93C145.3 383.351 145.444 382.847 145.734 382.418C146.023 381.989 146.429 381.662 146.952 381.438C147.474 381.205 148.072 381.088 148.744 381.088C149.752 381.088 150.568 381.335 151.194 381.83C151.828 382.315 152.178 382.997 152.244 383.874H150.088C150.069 383.538 149.924 383.263 149.654 383.048C149.392 382.824 149.042 382.712 148.604 382.712C148.221 382.712 147.913 382.81 147.68 383.006C147.456 383.202 147.344 383.487 147.344 383.86C147.344 384.121 147.428 384.341 147.596 384.518C147.773 384.686 147.988 384.826 148.24 384.938C148.501 385.041 148.865 385.162 149.332 385.302C149.966 385.489 150.484 385.675 150.886 385.862C151.287 386.049 151.632 386.329 151.922 386.702C152.211 387.075 152.356 387.565 152.356 388.172C152.356 388.695 152.22 389.18 151.95 389.628C151.679 390.076 151.282 390.435 150.76 390.706C150.237 390.967 149.616 391.098 148.898 391.098ZM156.337 384.854V388.606C156.337 388.867 156.398 389.059 156.519 389.18C156.65 389.292 156.864 389.348 157.163 389.348H158.073V391H156.841C155.189 391 154.363 390.197 154.363 388.592V384.854H153.439V383.244H154.363V381.326H156.337V383.244H158.073V384.854H156.337ZM158.979 387.094C158.979 386.31 159.133 385.615 159.441 385.008C159.758 384.401 160.183 383.935 160.715 383.608C161.256 383.281 161.858 383.118 162.521 383.118C163.099 383.118 163.603 383.235 164.033 383.468C164.471 383.701 164.821 383.995 165.083 384.35V383.244H167.057V391H165.083V389.866C164.831 390.23 164.481 390.533 164.033 390.776C163.594 391.009 163.085 391.126 162.507 391.126C161.853 391.126 161.256 390.958 160.715 390.622C160.183 390.286 159.758 389.815 159.441 389.208C159.133 388.592 158.979 387.887 158.979 387.094ZM165.083 387.122C165.083 386.646 164.989 386.24 164.803 385.904C164.616 385.559 164.364 385.297 164.047 385.12C163.729 384.933 163.389 384.84 163.025 384.84C162.661 384.84 162.325 384.929 162.017 385.106C161.709 385.283 161.457 385.545 161.261 385.89C161.074 386.226 160.981 386.627 160.981 387.094C160.981 387.561 161.074 387.971 161.261 388.326C161.457 388.671 161.709 388.937 162.017 389.124C162.334 389.311 162.67 389.404 163.025 389.404C163.389 389.404 163.729 389.315 164.047 389.138C164.364 388.951 164.616 388.69 164.803 388.354C164.989 388.009 165.083 387.598 165.083 387.122ZM170.931 384.448C171.183 384.037 171.51 383.715 171.911 383.482C172.322 383.249 172.788 383.132 173.311 383.132V385.19H172.793C172.177 385.19 171.71 385.335 171.393 385.624C171.085 385.913 170.931 386.417 170.931 387.136V391H168.971V383.244H170.931V384.448ZM176.913 384.854V388.606C176.913 388.867 176.974 389.059 177.095 389.18C177.226 389.292 177.44 389.348 177.739 389.348H178.649V391H177.417C175.765 391 174.939 390.197 174.939 388.592V384.854H174.015V383.244H174.939V381.326H176.913V383.244H178.649V384.854H176.913ZM187.269 386.954C187.269 387.234 187.25 387.486 187.213 387.71H181.543C181.589 388.27 181.785 388.709 182.131 389.026C182.476 389.343 182.901 389.502 183.405 389.502C184.133 389.502 184.651 389.189 184.959 388.564H187.073C186.849 389.311 186.419 389.927 185.785 390.412C185.15 390.888 184.371 391.126 183.447 391.126C182.7 391.126 182.028 390.963 181.431 390.636C180.843 390.3 180.381 389.829 180.045 389.222C179.718 388.615 179.555 387.915 179.555 387.122C179.555 386.319 179.718 385.615 180.045 385.008C180.371 384.401 180.829 383.935 181.417 383.608C182.005 383.281 182.681 383.118 183.447 383.118C184.184 383.118 184.842 383.277 185.421 383.594C186.009 383.911 186.461 384.364 186.779 384.952C187.105 385.531 187.269 386.198 187.269 386.954ZM185.239 386.394C185.229 385.89 185.047 385.489 184.693 385.19C184.338 384.882 183.904 384.728 183.391 384.728C182.905 384.728 182.495 384.877 182.159 385.176C181.832 385.465 181.631 385.871 181.557 386.394H185.239ZM188.195 387.094C188.195 386.31 188.349 385.615 188.657 385.008C188.975 384.401 189.404 383.935 189.945 383.608C190.487 383.281 191.089 383.118 191.751 383.118C192.255 383.118 192.736 383.23 193.193 383.454C193.651 383.669 194.015 383.958 194.285 384.322V380.64H196.273V391H194.285V389.852C194.043 390.235 193.702 390.543 193.263 390.776C192.825 391.009 192.316 391.126 191.737 391.126C191.084 391.126 190.487 390.958 189.945 390.622C189.404 390.286 188.975 389.815 188.657 389.208C188.349 388.592 188.195 387.887 188.195 387.094ZM194.299 387.122C194.299 386.646 194.206 386.24 194.019 385.904C193.833 385.559 193.581 385.297 193.263 385.12C192.946 384.933 192.605 384.84 192.241 384.84C191.877 384.84 191.541 384.929 191.233 385.106C190.925 385.283 190.673 385.545 190.477 385.89C190.291 386.226 190.197 386.627 190.197 387.094C190.197 387.561 190.291 387.971 190.477 388.326C190.673 388.671 190.925 388.937 191.233 389.124C191.551 389.311 191.887 389.404 192.241 389.404C192.605 389.404 192.946 389.315 193.263 389.138C193.581 388.951 193.833 388.69 194.019 388.354C194.206 388.009 194.299 387.598 194.299 387.122ZM209.882 391H207.922L203.484 384.294V391H201.524V381.214H203.484L207.922 387.934V381.214H209.882V391ZM215.263 391.126C214.516 391.126 213.844 390.963 213.247 390.636C212.649 390.3 212.178 389.829 211.833 389.222C211.497 388.615 211.329 387.915 211.329 387.122C211.329 386.329 211.501 385.629 211.847 385.022C212.201 384.415 212.682 383.949 213.289 383.622C213.895 383.286 214.572 383.118 215.319 383.118C216.065 383.118 216.742 383.286 217.349 383.622C217.955 383.949 218.431 384.415 218.777 385.022C219.131 385.629 219.309 386.329 219.309 387.122C219.309 387.915 219.127 388.615 218.763 389.222C218.408 389.829 217.923 390.3 217.307 390.636C216.7 390.963 216.019 391.126 215.263 391.126ZM215.263 389.418C215.617 389.418 215.949 389.334 216.257 389.166C216.574 388.989 216.826 388.727 217.013 388.382C217.199 388.037 217.293 387.617 217.293 387.122C217.293 386.385 217.097 385.82 216.705 385.428C216.322 385.027 215.851 384.826 215.291 384.826C214.731 384.826 214.259 385.027 213.877 385.428C213.503 385.82 213.317 386.385 213.317 387.122C213.317 387.859 213.499 388.429 213.863 388.83C214.236 389.222 214.703 389.418 215.263 389.418ZM231.498 383.244L229.23 391H227.116L225.702 385.582L224.288 391H222.16L219.878 383.244H221.866L223.238 389.152L224.722 383.244H226.794L228.25 389.138L229.622 383.244H231.498Z" fill="white"/>
<path d="M93.8282 214.382V215.566H88.9802V219.326H92.9162V220.51H88.9802V225.534H87.5242V214.382H93.8282ZM103.683 216.766V225.534H102.227V224.238C101.949 224.686 101.56 225.038 101.059 225.294C100.568 225.539 100.024 225.662 99.4267 225.662C98.744 225.662 98.1307 225.523 97.5867 225.246C97.0427 224.958 96.6107 224.531 96.2907 223.966C95.9814 223.401 95.8267 222.713 95.8267 221.902V216.766H97.2667V221.71C97.2667 222.574 97.4854 223.241 97.9227 223.71C98.36 224.169 98.9574 224.398 99.7147 224.398C100.493 224.398 101.107 224.158 101.555 223.678C102.003 223.198 102.227 222.499 102.227 221.582V216.766H103.683ZM107.917 213.694V225.534H106.461V213.694H107.917ZM112.175 213.694V225.534H110.719V213.694H112.175ZM126.698 215.23H121.082V218.878C121.327 218.537 121.69 218.259 122.17 218.046C122.65 217.822 123.167 217.71 123.722 217.71C124.607 217.71 125.327 217.897 125.882 218.27C126.436 218.633 126.831 219.107 127.066 219.694C127.311 220.27 127.434 220.883 127.434 221.534C127.434 222.302 127.29 222.99 127.002 223.598C126.714 224.206 126.271 224.686 125.674 225.038C125.087 225.39 124.356 225.566 123.482 225.566C122.362 225.566 121.455 225.278 120.762 224.702C120.068 224.126 119.647 223.358 119.498 222.398H120.922C121.06 223.006 121.354 223.481 121.802 223.822C122.25 224.163 122.815 224.334 123.498 224.334C124.34 224.334 124.975 224.083 125.402 223.582C125.828 223.07 126.042 222.398 126.042 221.566C126.042 220.734 125.828 220.094 125.402 219.646C124.975 219.187 124.346 218.958 123.514 218.958C122.948 218.958 122.452 219.097 122.026 219.374C121.61 219.641 121.306 220.009 121.114 220.478H119.738V213.95H126.698V215.23ZM129.689 219.63C129.689 217.795 129.987 216.366 130.585 215.342C131.182 214.307 132.227 213.79 133.721 213.79C135.203 213.79 136.243 214.307 136.841 215.342C137.438 216.366 137.737 217.795 137.737 219.63C137.737 221.497 137.438 222.947 136.841 223.982C136.243 225.017 135.203 225.534 133.721 225.534C132.227 225.534 131.182 225.017 130.585 223.982C129.987 222.947 129.689 221.497 129.689 219.63ZM136.297 219.63C136.297 218.702 136.233 217.918 136.105 217.278C135.987 216.627 135.737 216.105 135.353 215.71C134.979 215.315 134.435 215.118 133.721 215.118C132.995 215.118 132.441 215.315 132.057 215.71C131.683 216.105 131.433 216.627 131.305 217.278C131.187 217.918 131.129 218.702 131.129 219.63C131.129 220.59 131.187 221.395 131.305 222.046C131.433 222.697 131.683 223.219 132.057 223.614C132.441 224.009 132.995 224.206 133.721 224.206C134.435 224.206 134.979 224.009 135.353 223.614C135.737 223.219 135.987 222.697 136.105 222.046C136.233 221.395 136.297 220.59 136.297 219.63ZM148.615 220.302H145.207V223.758H143.847V220.302H140.455V219.07H143.847V215.598H145.207V219.07H148.615V220.302ZM161.179 225.646C160.144 225.646 159.2 225.406 158.347 224.926C157.494 224.435 156.816 223.758 156.315 222.894C155.824 222.019 155.579 221.038 155.579 219.95C155.579 218.862 155.824 217.886 156.315 217.022C156.816 216.147 157.494 215.47 158.347 214.99C159.2 214.499 160.144 214.254 161.179 214.254C162.224 214.254 163.174 214.499 164.027 214.99C164.88 215.47 165.552 216.142 166.043 217.006C166.534 217.87 166.779 218.851 166.779 219.95C166.779 221.049 166.534 222.03 166.043 222.894C165.552 223.758 164.88 224.435 164.027 224.926C163.174 225.406 162.224 225.646 161.179 225.646ZM161.179 224.382C161.958 224.382 162.656 224.201 163.275 223.838C163.904 223.475 164.395 222.958 164.747 222.286C165.11 221.614 165.291 220.835 165.291 219.95C165.291 219.054 165.11 218.275 164.747 217.614C164.395 216.942 163.91 216.425 163.291 216.062C162.672 215.699 161.968 215.518 161.179 215.518C160.39 215.518 159.686 215.699 159.067 216.062C158.448 216.425 157.958 216.942 157.595 217.614C157.243 218.275 157.067 219.054 157.067 219.95C157.067 220.835 157.243 221.614 157.595 222.286C157.958 222.958 158.448 223.475 159.067 223.838C159.696 224.201 160.4 224.382 161.179 224.382ZM173.293 216.606C174.36 216.606 175.224 216.931 175.885 217.582C176.546 218.222 176.877 219.15 176.877 220.366V225.534H175.437V220.574C175.437 219.699 175.218 219.033 174.781 218.574C174.344 218.105 173.746 217.87 172.989 217.87C172.221 217.87 171.608 218.11 171.149 218.59C170.701 219.07 170.477 219.769 170.477 220.686V225.534H169.021V216.766H170.477V218.014C170.765 217.566 171.154 217.219 171.645 216.974C172.146 216.729 172.696 216.606 173.293 216.606ZM181.031 213.694V225.534H179.575V213.694H181.031ZM184.585 215.342C184.308 215.342 184.073 215.246 183.881 215.054C183.689 214.862 183.593 214.627 183.593 214.35C183.593 214.073 183.689 213.838 183.881 213.646C184.073 213.454 184.308 213.358 184.585 213.358C184.852 213.358 185.076 213.454 185.257 213.646C185.449 213.838 185.545 214.073 185.545 214.35C185.545 214.627 185.449 214.862 185.257 215.054C185.076 215.246 184.852 215.342 184.585 215.342ZM185.289 216.766V225.534H183.833V216.766H185.289ZM192.362 216.606C193.429 216.606 194.293 216.931 194.954 217.582C195.616 218.222 195.946 219.15 195.946 220.366V225.534H194.506V220.574C194.506 219.699 194.288 219.033 193.85 218.574C193.413 218.105 192.816 217.87 192.058 217.87C191.29 217.87 190.677 218.11 190.218 218.59C189.77 219.07 189.546 219.769 189.546 220.686V225.534H188.09V216.766H189.546V218.014C189.834 217.566 190.224 217.219 190.714 216.974C191.216 216.729 191.765 216.606 192.362 216.606ZM206.645 220.814C206.645 221.091 206.629 221.385 206.597 221.694H199.589C199.642 222.558 199.935 223.235 200.469 223.726C201.013 224.206 201.669 224.446 202.437 224.446C203.066 224.446 203.589 224.302 204.005 224.014C204.431 223.715 204.73 223.321 204.901 222.83H206.469C206.234 223.673 205.765 224.361 205.061 224.894C204.357 225.417 203.482 225.678 202.437 225.678C201.605 225.678 200.858 225.491 200.197 225.118C199.546 224.745 199.034 224.217 198.661 223.534C198.287 222.841 198.101 222.041 198.101 221.134C198.101 220.227 198.282 219.433 198.645 218.75C199.007 218.067 199.514 217.545 200.165 217.182C200.826 216.809 201.583 216.622 202.437 216.622C203.269 216.622 204.005 216.803 204.645 217.166C205.285 217.529 205.775 218.03 206.117 218.67C206.469 219.299 206.645 220.014 206.645 220.814ZM205.141 220.51C205.141 219.955 205.018 219.481 204.773 219.086C204.527 218.681 204.191 218.377 203.765 218.174C203.349 217.961 202.885 217.854 202.373 217.854C201.637 217.854 201.007 218.089 200.485 218.558C199.973 219.027 199.679 219.678 199.605 220.51H205.141ZM212.928 221.134C212.928 220.227 213.11 219.438 213.472 218.766C213.835 218.083 214.336 217.555 214.976 217.182C215.627 216.809 216.368 216.622 217.2 216.622C218.278 216.622 219.163 216.883 219.856 217.406C220.56 217.929 221.024 218.654 221.248 219.582H219.68C219.531 219.049 219.238 218.627 218.8 218.318C218.374 218.009 217.84 217.854 217.2 217.854C216.368 217.854 215.696 218.142 215.184 218.718C214.672 219.283 214.416 220.089 214.416 221.134C214.416 222.19 214.672 223.006 215.184 223.582C215.696 224.158 216.368 224.446 217.2 224.446C217.84 224.446 218.374 224.297 218.8 223.998C219.227 223.699 219.52 223.273 219.68 222.718H221.248C221.014 223.614 220.544 224.334 219.84 224.878C219.136 225.411 218.256 225.678 217.2 225.678C216.368 225.678 215.627 225.491 214.976 225.118C214.336 224.745 213.835 224.217 213.472 223.534C213.11 222.851 212.928 222.051 212.928 221.134ZM224.967 213.694V225.534H223.511V213.694H224.967ZM227.225 221.118C227.225 220.222 227.406 219.438 227.769 218.766C228.131 218.083 228.627 217.555 229.257 217.182C229.897 216.809 230.606 216.622 231.385 216.622C232.153 216.622 232.819 216.787 233.385 217.118C233.95 217.449 234.371 217.865 234.649 218.366V216.766H236.121V225.534H234.649V223.902C234.361 224.414 233.929 224.841 233.353 225.182C232.787 225.513 232.126 225.678 231.369 225.678C230.59 225.678 229.886 225.486 229.257 225.102C228.627 224.718 228.131 224.179 227.769 223.486C227.406 222.793 227.225 222.003 227.225 221.118ZM234.649 221.134C234.649 220.473 234.515 219.897 234.249 219.406C233.982 218.915 233.619 218.542 233.161 218.286C232.713 218.019 232.217 217.886 231.673 217.886C231.129 217.886 230.633 218.014 230.185 218.27C229.737 218.526 229.379 218.899 229.113 219.39C228.846 219.881 228.713 220.457 228.713 221.118C228.713 221.79 228.846 222.377 229.113 222.878C229.379 223.369 229.737 223.747 230.185 224.014C230.633 224.27 231.129 224.398 231.673 224.398C232.217 224.398 232.713 224.27 233.161 224.014C233.619 223.747 233.982 223.369 234.249 222.878C234.515 222.377 234.649 221.795 234.649 221.134ZM242.005 225.678C241.333 225.678 240.73 225.566 240.197 225.342C239.664 225.107 239.242 224.787 238.933 224.382C238.624 223.966 238.453 223.491 238.421 222.958H239.925C239.968 223.395 240.17 223.753 240.533 224.03C240.906 224.307 241.392 224.446 241.989 224.446C242.544 224.446 242.981 224.323 243.301 224.078C243.621 223.833 243.781 223.523 243.781 223.15C243.781 222.766 243.61 222.483 243.269 222.302C242.928 222.11 242.4 221.923 241.685 221.742C241.034 221.571 240.501 221.401 240.085 221.23C239.68 221.049 239.328 220.787 239.029 220.446C238.741 220.094 238.597 219.635 238.597 219.07C238.597 218.622 238.73 218.211 238.997 217.838C239.264 217.465 239.642 217.171 240.133 216.958C240.624 216.734 241.184 216.622 241.813 216.622C242.784 216.622 243.568 216.867 244.165 217.358C244.762 217.849 245.082 218.521 245.125 219.374H243.669C243.637 218.915 243.45 218.547 243.109 218.27C242.778 217.993 242.33 217.854 241.765 217.854C241.242 217.854 240.826 217.966 240.517 218.19C240.208 218.414 240.053 218.707 240.053 219.07C240.053 219.358 240.144 219.598 240.325 219.79C240.517 219.971 240.752 220.121 241.029 220.238C241.317 220.345 241.712 220.467 242.213 220.606C242.842 220.777 243.354 220.947 243.749 221.118C244.144 221.278 244.48 221.523 244.757 221.854C245.045 222.185 245.194 222.617 245.205 223.15C245.205 223.63 245.072 224.062 244.805 224.446C244.538 224.83 244.16 225.134 243.669 225.358C243.189 225.571 242.634 225.678 242.005 225.678ZM250.684 225.678C250.012 225.678 249.41 225.566 248.876 225.342C248.343 225.107 247.922 224.787 247.612 224.382C247.303 223.966 247.132 223.491 247.1 222.958H248.604C248.647 223.395 248.85 223.753 249.212 224.03C249.586 224.307 250.071 224.446 250.668 224.446C251.223 224.446 251.66 224.323 251.98 224.078C252.3 223.833 252.46 223.523 252.46 223.15C252.46 222.766 252.29 222.483 251.948 222.302C251.607 222.11 251.079 221.923 250.364 221.742C249.714 221.571 249.18 221.401 248.764 221.23C248.359 221.049 248.007 220.787 247.708 220.446C247.42 220.094 247.276 219.635 247.276 219.07C247.276 218.622 247.41 218.211 247.676 217.838C247.943 217.465 248.322 217.171 248.812 216.958C249.303 216.734 249.863 216.622 250.492 216.622C251.463 216.622 252.247 216.867 252.844 217.358C253.442 217.849 253.762 218.521 253.804 219.374H252.348C252.316 218.915 252.13 218.547 251.788 218.27C251.458 217.993 251.01 217.854 250.444 217.854C249.922 217.854 249.506 217.966 249.196 218.19C248.887 218.414 248.732 218.707 248.732 219.07C248.732 219.358 248.823 219.598 249.004 219.79C249.196 219.971 249.431 220.121 249.708 220.238C249.996 220.345 250.391 220.467 250.892 220.606C251.522 220.777 252.034 220.947 252.428 221.118C252.823 221.278 253.159 221.523 253.436 221.854C253.724 222.185 253.874 222.617 253.884 223.15C253.884 223.63 253.751 224.062 253.484 224.446C253.218 224.83 252.839 225.134 252.348 225.358C251.868 225.571 251.314 225.678 250.684 225.678ZM79.2447 262.366C80.5994 261.278 81.6607 260.387 82.4287 259.694C83.1967 258.99 83.8421 258.259 84.3647 257.502C84.8981 256.734 85.1647 255.982 85.1647 255.246C85.1647 254.553 84.9941 254.009 84.6527 253.614C84.3221 253.209 83.7834 253.006 83.0367 253.006C82.3114 253.006 81.7461 253.235 81.3407 253.694C80.9461 254.142 80.7327 254.745 80.7007 255.502H79.2927C79.3354 254.307 79.6981 253.385 80.3807 252.734C81.0634 252.083 81.9434 251.758 83.0207 251.758C84.1194 251.758 84.9887 252.062 85.6287 252.67C86.2794 253.278 86.6047 254.115 86.6047 255.182C86.6047 256.067 86.3381 256.931 85.8047 257.774C85.2821 258.606 84.6847 259.342 84.0127 259.982C83.3407 260.611 82.4821 261.347 81.4367 262.19H86.9407V263.406H79.2447V262.366ZM88.5919 260.958V259.854L94.2079 252.078H95.9519V259.694H97.5519V260.958H95.9519V263.534H94.5119V260.958H88.5919ZM94.5759 253.598L90.2719 259.694H94.5759V253.598ZM103.918 254.606C104.58 254.606 105.177 254.75 105.71 255.038C106.244 255.315 106.66 255.737 106.958 256.302C107.268 256.867 107.422 257.555 107.422 258.366V263.534H105.982V258.574C105.982 257.699 105.764 257.033 105.326 256.574C104.889 256.105 104.292 255.87 103.534 255.87C102.766 255.87 102.153 256.11 101.694 256.59C101.246 257.07 101.022 257.769 101.022 258.686V263.534H99.5664V251.694H101.022V256.014C101.31 255.566 101.705 255.219 102.206 254.974C102.718 254.729 103.289 254.606 103.918 254.606ZM118.242 263.646C117.506 263.646 116.845 263.518 116.258 263.262C115.682 262.995 115.229 262.633 114.898 262.174C114.568 261.705 114.397 261.166 114.386 260.558H115.938C115.992 261.081 116.205 261.523 116.578 261.886C116.962 262.238 117.517 262.414 118.242 262.414C118.936 262.414 119.48 262.243 119.874 261.902C120.28 261.55 120.482 261.102 120.482 260.558C120.482 260.131 120.365 259.785 120.13 259.518C119.896 259.251 119.602 259.049 119.25 258.91C118.898 258.771 118.424 258.622 117.826 258.462C117.09 258.27 116.498 258.078 116.05 257.886C115.613 257.694 115.234 257.395 114.914 256.99C114.605 256.574 114.45 256.019 114.45 255.326C114.45 254.718 114.605 254.179 114.914 253.71C115.224 253.241 115.656 252.878 116.21 252.622C116.776 252.366 117.421 252.238 118.146 252.238C119.192 252.238 120.045 252.499 120.706 253.022C121.378 253.545 121.757 254.238 121.842 255.102H120.242C120.189 254.675 119.965 254.302 119.57 253.982C119.176 253.651 118.653 253.486 118.002 253.486C117.394 253.486 116.898 253.646 116.514 253.966C116.13 254.275 115.938 254.713 115.938 255.278C115.938 255.683 116.05 256.014 116.274 256.27C116.509 256.526 116.792 256.723 117.122 256.862C117.464 256.99 117.938 257.139 118.546 257.31C119.282 257.513 119.874 257.715 120.322 257.918C120.77 258.11 121.154 258.414 121.474 258.83C121.794 259.235 121.954 259.79 121.954 260.494C121.954 261.038 121.81 261.55 121.522 262.03C121.234 262.51 120.808 262.899 120.242 263.198C119.677 263.497 119.01 263.646 118.242 263.646ZM132.193 254.766V263.534H130.737V262.238C130.46 262.686 130.07 263.038 129.569 263.294C129.078 263.539 128.534 263.662 127.937 263.662C127.254 263.662 126.641 263.523 126.097 263.246C125.553 262.958 125.121 262.531 124.801 261.966C124.492 261.401 124.337 260.713 124.337 259.902V254.766H125.777V259.71C125.777 260.574 125.996 261.241 126.433 261.71C126.87 262.169 127.468 262.398 128.225 262.398C129.004 262.398 129.617 262.158 130.065 261.678C130.513 261.198 130.737 260.499 130.737 259.582V254.766H132.193ZM136.427 256.382C136.715 255.881 137.142 255.465 137.707 255.134C138.283 254.793 138.95 254.622 139.707 254.622C140.486 254.622 141.19 254.809 141.819 255.182C142.459 255.555 142.961 256.083 143.323 256.766C143.686 257.438 143.867 258.222 143.867 259.118C143.867 260.003 143.686 260.793 143.323 261.486C142.961 262.179 142.459 262.718 141.819 263.102C141.19 263.486 140.486 263.678 139.707 263.678C138.961 263.678 138.299 263.513 137.723 263.182C137.158 262.841 136.726 262.419 136.427 261.918V267.694H134.971V254.766H136.427V256.382ZM142.379 259.118C142.379 258.457 142.246 257.881 141.979 257.39C141.713 256.899 141.35 256.526 140.891 256.27C140.443 256.014 139.947 255.886 139.403 255.886C138.87 255.886 138.374 256.019 137.915 256.286C137.467 256.542 137.105 256.921 136.827 257.422C136.561 257.913 136.427 258.483 136.427 259.134C136.427 259.795 136.561 260.377 136.827 260.878C137.105 261.369 137.467 261.747 137.915 262.014C138.374 262.27 138.87 262.398 139.403 262.398C139.947 262.398 140.443 262.27 140.891 262.014C141.35 261.747 141.713 261.369 141.979 260.878C142.246 260.377 142.379 259.79 142.379 259.118ZM147.56 256.382C147.848 255.881 148.275 255.465 148.84 255.134C149.416 254.793 150.083 254.622 150.84 254.622C151.619 254.622 152.323 254.809 152.952 255.182C153.592 255.555 154.093 256.083 154.456 256.766C154.819 257.438 155 258.222 155 259.118C155 260.003 154.819 260.793 154.456 261.486C154.093 262.179 153.592 262.718 152.952 263.102C152.323 263.486 151.619 263.678 150.84 263.678C150.093 263.678 149.432 263.513 148.856 263.182C148.291 262.841 147.859 262.419 147.56 261.918V267.694H146.104V254.766H147.56V256.382ZM153.512 259.118C153.512 258.457 153.379 257.881 153.112 257.39C152.845 256.899 152.483 256.526 152.024 256.27C151.576 256.014 151.08 255.886 150.536 255.886C150.003 255.886 149.507 256.019 149.048 256.286C148.6 256.542 148.237 256.921 147.96 257.422C147.693 257.913 147.56 258.483 147.56 259.134C147.56 259.795 147.693 260.377 147.96 260.878C148.237 261.369 148.6 261.747 149.048 262.014C149.507 262.27 150.003 262.398 150.536 262.398C151.08 262.398 151.576 262.27 152.024 262.014C152.483 261.747 152.845 261.369 153.112 260.878C153.379 260.377 153.512 259.79 153.512 259.118ZM161.06 263.678C160.239 263.678 159.492 263.491 158.82 263.118C158.159 262.745 157.636 262.217 157.252 261.534C156.879 260.841 156.692 260.041 156.692 259.134C156.692 258.238 156.884 257.449 157.268 256.766C157.663 256.073 158.196 255.545 158.868 255.182C159.54 254.809 160.292 254.622 161.124 254.622C161.956 254.622 162.708 254.809 163.38 255.182C164.052 255.545 164.58 256.067 164.964 256.75C165.359 257.433 165.556 258.227 165.556 259.134C165.556 260.041 165.354 260.841 164.948 261.534C164.554 262.217 164.015 262.745 163.332 263.118C162.65 263.491 161.892 263.678 161.06 263.678ZM161.06 262.398C161.583 262.398 162.074 262.275 162.532 262.03C162.991 261.785 163.359 261.417 163.636 260.926C163.924 260.435 164.068 259.838 164.068 259.134C164.068 258.43 163.93 257.833 163.652 257.342C163.375 256.851 163.012 256.489 162.564 256.254C162.116 256.009 161.631 255.886 161.108 255.886C160.575 255.886 160.084 256.009 159.636 256.254C159.199 256.489 158.847 256.851 158.58 257.342C158.314 257.833 158.18 258.43 158.18 259.134C158.18 259.849 158.308 260.451 158.564 260.942C158.831 261.433 159.183 261.801 159.62 262.046C160.058 262.281 160.538 262.398 161.06 262.398ZM169.247 256.19C169.503 255.689 169.865 255.299 170.335 255.022C170.815 254.745 171.396 254.606 172.079 254.606V256.11H171.695C170.063 256.11 169.247 256.995 169.247 258.766V263.534H167.791V254.766H169.247V256.19ZM175.856 255.966V261.134C175.856 261.561 175.946 261.865 176.128 262.046C176.309 262.217 176.624 262.302 177.072 262.302H178.144V263.534H176.832C176.021 263.534 175.413 263.347 175.008 262.974C174.602 262.601 174.4 261.987 174.4 261.134V255.966H173.264V254.766H174.4V252.558H175.856V254.766H178.144V255.966H175.856ZM184.269 259.134C184.269 258.227 184.451 257.438 184.813 256.766C185.176 256.083 185.677 255.555 186.317 255.182C186.968 254.809 187.709 254.622 188.541 254.622C189.619 254.622 190.504 254.883 191.197 255.406C191.901 255.929 192.365 256.654 192.589 257.582H191.021C190.872 257.049 190.579 256.627 190.141 256.318C189.715 256.009 189.181 255.854 188.541 255.854C187.709 255.854 187.037 256.142 186.525 256.718C186.013 257.283 185.757 258.089 185.757 259.134C185.757 260.19 186.013 261.006 186.525 261.582C187.037 262.158 187.709 262.446 188.541 262.446C189.181 262.446 189.715 262.297 190.141 261.998C190.568 261.699 190.861 261.273 191.021 260.718H192.589C192.355 261.614 191.885 262.334 191.181 262.878C190.477 263.411 189.597 263.678 188.541 263.678C187.709 263.678 186.968 263.491 186.317 263.118C185.677 262.745 185.176 262.217 184.813 261.534C184.451 260.851 184.269 260.051 184.269 259.134ZM202.628 254.766V263.534H201.172V262.238C200.895 262.686 200.505 263.038 200.004 263.294C199.513 263.539 198.969 263.662 198.372 263.662C197.689 263.662 197.076 263.523 196.532 263.246C195.988 262.958 195.556 262.531 195.236 261.966C194.927 261.401 194.772 260.713 194.772 259.902V254.766H196.212V259.71C196.212 260.574 196.431 261.241 196.868 261.71C197.305 262.169 197.903 262.398 198.66 262.398C199.439 262.398 200.052 262.158 200.5 261.678C200.948 261.198 201.172 260.499 201.172 259.582V254.766H202.628ZM208.51 263.678C207.838 263.678 207.236 263.566 206.702 263.342C206.169 263.107 205.748 262.787 205.438 262.382C205.129 261.966 204.958 261.491 204.926 260.958H206.43C206.473 261.395 206.676 261.753 207.038 262.03C207.412 262.307 207.897 262.446 208.494 262.446C209.049 262.446 209.486 262.323 209.806 262.078C210.126 261.833 210.286 261.523 210.286 261.15C210.286 260.766 210.116 260.483 209.774 260.302C209.433 260.11 208.905 259.923 208.19 259.742C207.54 259.571 207.006 259.401 206.59 259.23C206.185 259.049 205.833 258.787 205.534 258.446C205.246 258.094 205.102 257.635 205.102 257.07C205.102 256.622 205.236 256.211 205.502 255.838C205.769 255.465 206.148 255.171 206.638 254.958C207.129 254.734 207.689 254.622 208.318 254.622C209.289 254.622 210.073 254.867 210.67 255.358C211.268 255.849 211.588 256.521 211.63 257.374H210.174C210.142 256.915 209.956 256.547 209.614 256.27C209.284 255.993 208.836 255.854 208.27 255.854C207.748 255.854 207.332 255.966 207.022 256.19C206.713 256.414 206.558 256.707 206.558 257.07C206.558 257.358 206.649 257.598 206.83 257.79C207.022 257.971 207.257 258.121 207.534 258.238C207.822 258.345 208.217 258.467 208.718 258.606C209.348 258.777 209.86 258.947 210.254 259.118C210.649 259.278 210.985 259.523 211.262 259.854C211.55 260.185 211.7 260.617 211.71 261.15C211.71 261.63 211.577 262.062 211.31 262.446C211.044 262.83 210.665 263.134 210.174 263.358C209.694 263.571 209.14 263.678 208.51 263.678ZM215.862 255.966V261.134C215.862 261.561 215.952 261.865 216.134 262.046C216.315 262.217 216.63 262.302 217.078 262.302H218.15V263.534H216.838C216.027 263.534 215.419 263.347 215.014 262.974C214.608 262.601 214.406 261.987 214.406 261.134V255.966H213.27V254.766H214.406V252.558H215.862V254.766H218.15V255.966H215.862ZM224.058 263.678C223.237 263.678 222.49 263.491 221.818 263.118C221.157 262.745 220.634 262.217 220.25 261.534C219.877 260.841 219.69 260.041 219.69 259.134C219.69 258.238 219.882 257.449 220.266 256.766C220.661 256.073 221.194 255.545 221.866 255.182C222.538 254.809 223.29 254.622 224.122 254.622C224.954 254.622 225.706 254.809 226.378 255.182C227.05 255.545 227.578 256.067 227.962 256.75C228.357 257.433 228.554 258.227 228.554 259.134C228.554 260.041 228.351 260.841 227.946 261.534C227.551 262.217 227.013 262.745 226.33 263.118C225.647 263.491 224.89 263.678 224.058 263.678ZM224.058 262.398C224.581 262.398 225.071 262.275 225.53 262.03C225.989 261.785 226.357 261.417 226.634 260.926C226.922 260.435 227.066 259.838 227.066 259.134C227.066 258.43 226.927 257.833 226.65 257.342C226.373 256.851 226.01 256.489 225.562 256.254C225.114 256.009 224.629 255.886 224.106 255.886C223.573 255.886 223.082 256.009 222.634 256.254C222.197 256.489 221.845 256.851 221.578 257.342C221.311 257.833 221.178 258.43 221.178 259.134C221.178 259.849 221.306 260.451 221.562 260.942C221.829 261.433 222.181 261.801 222.618 262.046C223.055 262.281 223.535 262.398 224.058 262.398ZM241.332 254.606C242.015 254.606 242.623 254.75 243.156 255.038C243.69 255.315 244.111 255.737 244.42 256.302C244.73 256.867 244.884 257.555 244.884 258.366V263.534H243.444V258.574C243.444 257.699 243.226 257.033 242.788 256.574C242.362 256.105 241.78 255.87 241.044 255.87C240.287 255.87 239.684 256.115 239.236 256.606C238.788 257.086 238.564 257.785 238.564 258.702V263.534H237.124V258.574C237.124 257.699 236.906 257.033 236.468 256.574C236.042 256.105 235.46 255.87 234.724 255.87C233.967 255.87 233.364 256.115 232.916 256.606C232.468 257.086 232.244 257.785 232.244 258.702V263.534H230.788V254.766H232.244V256.03C232.532 255.571 232.916 255.219 233.396 254.974C233.887 254.729 234.426 254.606 235.012 254.606C235.748 254.606 236.399 254.771 236.964 255.102C237.53 255.433 237.951 255.918 238.228 256.558C238.474 255.939 238.879 255.459 239.444 255.118C240.01 254.777 240.639 254.606 241.332 254.606ZM255.593 258.814C255.593 259.091 255.577 259.385 255.545 259.694H248.537C248.59 260.558 248.883 261.235 249.417 261.726C249.961 262.206 250.617 262.446 251.385 262.446C252.014 262.446 252.537 262.302 252.953 262.014C253.379 261.715 253.678 261.321 253.849 260.83H255.417C255.182 261.673 254.713 262.361 254.009 262.894C253.305 263.417 252.43 263.678 251.385 263.678C250.553 263.678 249.806 263.491 249.145 263.118C248.494 262.745 247.982 262.217 247.609 261.534C247.235 260.841 247.049 260.041 247.049 259.134C247.049 258.227 247.23 257.433 247.593 256.75C247.955 256.067 248.462 255.545 249.113 255.182C249.774 254.809 250.531 254.622 251.385 254.622C252.217 254.622 252.953 254.803 253.593 255.166C254.233 255.529 254.723 256.03 255.065 256.67C255.417 257.299 255.593 258.014 255.593 258.814ZM254.089 258.51C254.089 257.955 253.966 257.481 253.721 257.086C253.475 256.681 253.139 256.377 252.713 256.174C252.297 255.961 251.833 255.854 251.321 255.854C250.585 255.854 249.955 256.089 249.433 256.558C248.921 257.027 248.627 257.678 248.553 258.51H254.089ZM259.291 256.19C259.547 255.689 259.909 255.299 260.379 255.022C260.859 254.745 261.44 254.606 262.123 254.606V256.11H261.739C260.107 256.11 259.291 256.995 259.291 258.766V263.534H257.835V254.766H259.291V256.19ZM97.4371 293.646C97.4371 294.574 97.1171 295.347 96.4771 295.966C95.8477 296.574 94.8824 296.878 93.5811 296.878H91.4371V301.534H89.9811V290.382H93.5811C94.8397 290.382 95.7944 290.686 96.4451 291.294C97.1064 291.902 97.4371 292.686 97.4371 293.646ZM93.5811 295.678C94.3917 295.678 94.9891 295.502 95.3731 295.15C95.7571 294.798 95.9491 294.297 95.9491 293.646C95.9491 292.27 95.1597 291.582 93.5811 291.582H91.4371V295.678H93.5811ZM101.023 294.19C101.279 293.689 101.641 293.299 102.111 293.022C102.591 292.745 103.172 292.606 103.855 292.606V294.11H103.471C101.839 294.11 101.023 294.995 101.023 296.766V301.534H99.5667V292.766H101.023V294.19ZM113.855 296.814C113.855 297.091 113.839 297.385 113.807 297.694H106.799C106.853 298.558 107.146 299.235 107.679 299.726C108.223 300.206 108.879 300.446 109.647 300.446C110.277 300.446 110.799 300.302 111.215 300.014C111.642 299.715 111.941 299.321 112.111 298.83H113.679C113.445 299.673 112.975 300.361 112.271 300.894C111.567 301.417 110.693 301.678 109.647 301.678C108.815 301.678 108.069 301.491 107.407 301.118C106.757 300.745 106.245 300.217 105.871 299.534C105.498 298.841 105.311 298.041 105.311 297.134C105.311 296.227 105.493 295.433 105.855 294.75C106.218 294.067 106.725 293.545 107.375 293.182C108.037 292.809 108.794 292.622 109.647 292.622C110.479 292.622 111.215 292.803 111.855 293.166C112.495 293.529 112.986 294.03 113.327 294.67C113.679 295.299 113.855 296.014 113.855 296.814ZM112.351 296.51C112.351 295.955 112.229 295.481 111.983 295.086C111.738 294.681 111.402 294.377 110.975 294.174C110.559 293.961 110.095 293.854 109.583 293.854C108.847 293.854 108.218 294.089 107.695 294.558C107.183 295.027 106.89 295.678 106.815 296.51H112.351ZM126.641 292.606C127.324 292.606 127.932 292.75 128.465 293.038C128.999 293.315 129.42 293.737 129.729 294.302C130.039 294.867 130.193 295.555 130.193 296.366V301.534H128.753V296.574C128.753 295.699 128.535 295.033 128.097 294.574C127.671 294.105 127.089 293.87 126.353 293.87C125.596 293.87 124.993 294.115 124.545 294.606C124.097 295.086 123.873 295.785 123.873 296.702V301.534H122.433V296.574C122.433 295.699 122.215 295.033 121.777 294.574C121.351 294.105 120.769 293.87 120.033 293.87C119.276 293.87 118.673 294.115 118.225 294.606C117.777 295.086 117.553 295.785 117.553 296.702V301.534H116.097V292.766H117.553V294.03C117.841 293.571 118.225 293.219 118.705 292.974C119.196 292.729 119.735 292.606 120.321 292.606C121.057 292.606 121.708 292.771 122.273 293.102C122.839 293.433 123.26 293.918 123.537 294.558C123.783 293.939 124.188 293.459 124.753 293.118C125.319 292.777 125.948 292.606 126.641 292.606ZM133.654 291.342C133.376 291.342 133.142 291.246 132.95 291.054C132.758 290.862 132.662 290.627 132.662 290.35C132.662 290.073 132.758 289.838 132.95 289.646C133.142 289.454 133.376 289.358 133.654 289.358C133.92 289.358 134.144 289.454 134.326 289.646C134.518 289.838 134.614 290.073 134.614 290.35C134.614 290.627 134.518 290.862 134.326 291.054C134.144 291.246 133.92 291.342 133.654 291.342ZM134.358 292.766V301.534H132.902V292.766H134.358ZM144.935 292.766V301.534H143.479V300.238C143.202 300.686 142.813 301.038 142.311 301.294C141.821 301.539 141.277 301.662 140.679 301.662C139.997 301.662 139.383 301.523 138.839 301.246C138.295 300.958 137.863 300.531 137.543 299.966C137.234 299.401 137.079 298.713 137.079 297.902V292.766H138.519V297.71C138.519 298.574 138.738 299.241 139.175 299.71C139.613 300.169 140.21 300.398 140.967 300.398C141.746 300.398 142.359 300.158 142.807 299.678C143.255 299.198 143.479 298.499 143.479 297.582V292.766H144.935ZM158.258 292.606C158.94 292.606 159.548 292.75 160.082 293.038C160.615 293.315 161.036 293.737 161.346 294.302C161.655 294.867 161.81 295.555 161.81 296.366V301.534H160.37V296.574C160.37 295.699 160.151 295.033 159.714 294.574C159.287 294.105 158.706 293.87 157.97 293.87C157.212 293.87 156.61 294.115 156.162 294.606C155.714 295.086 155.49 295.785 155.49 296.702V301.534H154.05V296.574C154.05 295.699 153.831 295.033 153.394 294.574C152.967 294.105 152.386 293.87 151.65 293.87C150.892 293.87 150.29 294.115 149.842 294.606C149.394 295.086 149.17 295.785 149.17 296.702V301.534H147.714V292.766H149.17V294.03C149.458 293.571 149.842 293.219 150.322 292.974C150.812 292.729 151.351 292.606 151.938 292.606C152.674 292.606 153.324 292.771 153.89 293.102C154.455 293.433 154.876 293.918 155.154 294.558C155.399 293.939 155.804 293.459 156.37 293.118C156.935 292.777 157.564 292.606 158.258 292.606ZM168.56 297.134C168.56 296.227 168.741 295.438 169.104 294.766C169.466 294.083 169.968 293.555 170.608 293.182C171.258 292.809 172 292.622 172.832 292.622C173.909 292.622 174.794 292.883 175.488 293.406C176.192 293.929 176.656 294.654 176.88 295.582H175.312C175.162 295.049 174.869 294.627 174.432 294.318C174.005 294.009 173.472 293.854 172.832 293.854C172 293.854 171.328 294.142 170.816 294.718C170.304 295.283 170.048 296.089 170.048 297.134C170.048 298.19 170.304 299.006 170.816 299.582C171.328 300.158 172 300.446 172.832 300.446C173.472 300.446 174.005 300.297 174.432 299.998C174.858 299.699 175.152 299.273 175.312 298.718H176.88C176.645 299.614 176.176 300.334 175.472 300.878C174.768 301.411 173.888 301.678 172.832 301.678C172 301.678 171.258 301.491 170.608 301.118C169.968 300.745 169.466 300.217 169.104 299.534C168.741 298.851 168.56 298.051 168.56 297.134ZM187.142 296.814C187.142 297.091 187.126 297.385 187.094 297.694H180.086C180.14 298.558 180.433 299.235 180.966 299.726C181.51 300.206 182.166 300.446 182.934 300.446C183.564 300.446 184.086 300.302 184.502 300.014C184.929 299.715 185.228 299.321 185.398 298.83H186.966C186.732 299.673 186.262 300.361 185.558 300.894C184.854 301.417 183.98 301.678 182.934 301.678C182.102 301.678 181.356 301.491 180.694 301.118C180.044 300.745 179.532 300.217 179.158 299.534C178.785 298.841 178.598 298.041 178.598 297.134C178.598 296.227 178.78 295.433 179.142 294.75C179.505 294.067 180.012 293.545 180.662 293.182C181.324 292.809 182.081 292.622 182.934 292.622C183.766 292.622 184.502 292.803 185.142 293.166C185.782 293.529 186.273 294.03 186.614 294.67C186.966 295.299 187.142 296.014 187.142 296.814ZM185.638 296.51C185.638 295.955 185.516 295.481 185.27 295.086C185.025 294.681 184.689 294.377 184.262 294.174C183.846 293.961 183.382 293.854 182.87 293.854C182.134 293.854 181.505 294.089 180.982 294.558C180.47 295.027 180.177 295.678 180.102 296.51H185.638ZM190.84 294.19C191.096 293.689 191.459 293.299 191.928 293.022C192.408 292.745 192.99 292.606 193.672 292.606V294.11H193.288C191.656 294.11 190.84 294.995 190.84 296.766V301.534H189.384V292.766H190.84V294.19ZM197.449 293.966V299.134C197.449 299.561 197.54 299.865 197.721 300.046C197.902 300.217 198.217 300.302 198.665 300.302H199.737V301.534H198.425C197.614 301.534 197.006 301.347 196.601 300.974C196.196 300.601 195.993 299.987 195.993 299.134V293.966H194.857V292.766H195.993V290.558H197.449V292.766H199.737V293.966H197.449ZM202.573 291.342C202.296 291.342 202.061 291.246 201.869 291.054C201.677 290.862 201.581 290.627 201.581 290.35C201.581 290.073 201.677 289.838 201.869 289.646C202.061 289.454 202.296 289.358 202.573 289.358C202.84 289.358 203.064 289.454 203.245 289.646C203.437 289.838 203.533 290.073 203.533 290.35C203.533 290.627 203.437 290.862 203.245 291.054C203.064 291.246 202.84 291.342 202.573 291.342ZM203.277 292.766V301.534H201.821V292.766H203.277ZM209.647 293.966H207.807V301.534H206.351V293.966H205.215V292.766H206.351V292.142C206.351 291.161 206.601 290.446 207.103 289.998C207.615 289.539 208.431 289.31 209.551 289.31V290.526C208.911 290.526 208.457 290.654 208.191 290.91C207.935 291.155 207.807 291.566 207.807 292.142V292.766H209.647V293.966ZM212.416 291.342C212.139 291.342 211.904 291.246 211.712 291.054C211.52 290.862 211.424 290.627 211.424 290.35C211.424 290.073 211.52 289.838 211.712 289.646C211.904 289.454 212.139 289.358 212.416 289.358C212.683 289.358 212.907 289.454 213.088 289.646C213.28 289.838 213.376 290.073 213.376 290.35C213.376 290.627 213.28 290.862 213.088 291.054C212.907 291.246 212.683 291.342 212.416 291.342ZM213.12 292.766V301.534H211.664V292.766H213.12ZM215.378 297.134C215.378 296.227 215.559 295.438 215.922 294.766C216.284 294.083 216.786 293.555 217.426 293.182C218.076 292.809 218.818 292.622 219.65 292.622C220.727 292.622 221.612 292.883 222.306 293.406C223.01 293.929 223.474 294.654 223.698 295.582H222.13C221.98 295.049 221.687 294.627 221.25 294.318C220.823 294.009 220.29 293.854 219.65 293.854C218.818 293.854 218.146 294.142 217.634 294.718C217.122 295.283 216.866 296.089 216.866 297.134C216.866 298.19 217.122 299.006 217.634 299.582C218.146 300.158 218.818 300.446 219.65 300.446C220.29 300.446 220.823 300.297 221.25 299.998C221.676 299.699 221.97 299.273 222.13 298.718H223.698C223.463 299.614 222.994 300.334 222.29 300.878C221.586 301.411 220.706 301.678 219.65 301.678C218.818 301.678 218.076 301.491 217.426 301.118C216.786 300.745 216.284 300.217 215.922 299.534C215.559 298.851 215.378 298.051 215.378 297.134ZM225.416 297.118C225.416 296.222 225.598 295.438 225.96 294.766C226.323 294.083 226.819 293.555 227.448 293.182C228.088 292.809 228.798 292.622 229.576 292.622C230.344 292.622 231.011 292.787 231.576 293.118C232.142 293.449 232.563 293.865 232.84 294.366V292.766H234.312V301.534H232.84V299.902C232.552 300.414 232.12 300.841 231.544 301.182C230.979 301.513 230.318 301.678 229.56 301.678C228.782 301.678 228.078 301.486 227.448 301.102C226.819 300.718 226.323 300.179 225.96 299.486C225.598 298.793 225.416 298.003 225.416 297.118ZM232.84 297.134C232.84 296.473 232.707 295.897 232.44 295.406C232.174 294.915 231.811 294.542 231.352 294.286C230.904 294.019 230.408 293.886 229.864 293.886C229.32 293.886 228.824 294.014 228.376 294.27C227.928 294.526 227.571 294.899 227.304 295.39C227.038 295.881 226.904 296.457 226.904 297.118C226.904 297.79 227.038 298.377 227.304 298.878C227.571 299.369 227.928 299.747 228.376 300.014C228.824 300.27 229.32 300.398 229.864 300.398C230.408 300.398 230.904 300.27 231.352 300.014C231.811 299.747 232.174 299.369 232.44 298.878C232.707 298.377 232.84 297.795 232.84 297.134ZM238.869 293.966V299.134C238.869 299.561 238.96 299.865 239.141 300.046C239.322 300.217 239.637 300.302 240.085 300.302H241.157V301.534H239.845C239.034 301.534 238.426 301.347 238.021 300.974C237.616 300.601 237.413 299.987 237.413 299.134V293.966H236.277V292.766H237.413V290.558H238.869V292.766H241.157V293.966H238.869ZM251.241 296.814C251.241 297.091 251.225 297.385 251.193 297.694H244.185C244.238 298.558 244.532 299.235 245.065 299.726C245.609 300.206 246.265 300.446 247.033 300.446C247.662 300.446 248.185 300.302 248.601 300.014C249.028 299.715 249.326 299.321 249.497 298.83H251.065C250.83 299.673 250.361 300.361 249.657 300.894C248.953 301.417 248.078 301.678 247.033 301.678C246.201 301.678 245.454 301.491 244.793 301.118C244.142 300.745 243.63 300.217 243.257 299.534C242.884 298.841 242.697 298.041 242.697 297.134C242.697 296.227 242.878 295.433 243.241 294.75C243.604 294.067 244.11 293.545 244.761 293.182C245.422 292.809 246.18 292.622 247.033 292.622C247.865 292.622 248.601 292.803 249.241 293.166C249.881 293.529 250.372 294.03 250.713 294.67C251.065 295.299 251.241 296.014 251.241 296.814ZM249.737 296.51C249.737 295.955 249.614 295.481 249.369 295.086C249.124 294.681 248.788 294.377 248.361 294.174C247.945 293.961 247.481 293.854 246.969 293.854C246.233 293.854 245.604 294.089 245.081 294.558C244.569 295.027 244.276 295.678 244.201 296.51H249.737Z" fill="#95949A"/>
<path d="M136.836 144.392C136.836 146.299 136.333 148.067 135.328 149.696C134.357 151.291 132.901 152.608 130.96 153.648C129.053 154.653 126.783 155.208 124.148 155.312V159.524H120.82V155.26C117.145 154.948 114.181 153.856 111.928 151.984C109.675 150.077 108.479 147.495 108.34 144.236H117.804C118.012 146.316 119.017 147.651 120.82 148.24V140.024C118.116 139.331 115.949 138.655 114.32 137.996C112.725 137.337 111.321 136.28 110.108 134.824C108.895 133.368 108.288 131.375 108.288 128.844C108.288 125.689 109.449 123.159 111.772 121.252C114.129 119.345 117.145 118.271 120.82 118.028V113.816H124.148V118.028C127.788 118.305 130.665 119.363 132.78 121.2C134.895 123.037 136.073 125.585 136.316 128.844H126.8C126.592 126.972 125.708 125.759 124.148 125.204V133.264C127.025 134.061 129.244 134.772 130.804 135.396C132.364 136.02 133.751 137.06 134.964 138.516C136.212 139.937 136.836 141.896 136.836 144.392ZM117.7 128.428C117.7 129.295 117.96 130.023 118.48 130.612C119.035 131.201 119.815 131.721 120.82 132.172V124.944C119.849 125.117 119.087 125.499 118.532 126.088C117.977 126.643 117.7 127.423 117.7 128.428ZM124.148 148.396C125.188 148.223 126.003 147.807 126.592 147.148C127.216 146.489 127.528 145.675 127.528 144.704C127.528 143.803 127.233 143.075 126.644 142.52C126.089 141.931 125.257 141.428 124.148 141.012V148.396ZM152.135 143.872C152.655 146.611 154.249 147.98 156.919 147.98C158.756 147.98 160.056 147.165 160.819 145.536C161.581 143.907 161.963 141.255 161.963 137.58C161.2 138.655 160.16 139.487 158.843 140.076C157.525 140.665 156.052 140.96 154.423 140.96C152.204 140.96 150.228 140.509 148.495 139.608C146.761 138.672 145.392 137.303 144.387 135.5C143.416 133.663 142.931 131.444 142.931 128.844C142.931 126.279 143.451 124.043 144.491 122.136C145.565 120.229 147.073 118.756 149.015 117.716C150.991 116.676 153.313 116.156 155.983 116.156C161.113 116.156 164.701 117.751 166.747 120.94C168.792 124.129 169.815 128.827 169.815 135.032C169.815 139.539 169.399 143.265 168.567 146.212C167.769 149.124 166.4 151.343 164.459 152.868C162.552 154.393 159.935 155.156 156.607 155.156C153.972 155.156 151.719 154.636 149.847 153.596C148.009 152.556 146.588 151.187 145.583 149.488C144.612 147.789 144.057 145.917 143.919 143.872H152.135ZM156.451 133.94C157.907 133.94 159.068 133.507 159.935 132.64C160.801 131.739 161.235 130.525 161.235 129C161.235 127.336 160.784 126.053 159.883 125.152C158.981 124.251 157.768 123.8 156.243 123.8C154.717 123.8 153.504 124.268 152.603 125.204C151.736 126.105 151.303 127.353 151.303 128.948C151.303 130.439 151.736 131.652 152.603 132.588C153.504 133.489 154.787 133.94 156.451 133.94ZM198.791 123.696L185.739 155H176.639L189.847 124.684H173.675V117.092H198.791V123.696ZM207.431 155.416C205.871 155.416 204.588 154.965 203.583 154.064C202.612 153.128 202.127 151.984 202.127 150.632C202.127 149.245 202.612 148.084 203.583 147.148C204.588 146.212 205.871 145.744 207.431 145.744C208.956 145.744 210.204 146.212 211.175 147.148C212.18 148.084 212.683 149.245 212.683 150.632C212.683 151.984 212.18 153.128 211.175 154.064C210.204 154.965 208.956 155.416 207.431 155.416Z" fill="#292E37"/>
<path d="M215.939 135.692C216.103 136.507 216.453 137.127 216.991 137.551C217.529 137.975 218.254 138.186 219.167 138.186C220.325 138.186 221.172 137.73 221.71 136.817C222.248 135.904 222.517 134.347 222.517 132.147C222.126 132.701 221.572 133.133 220.855 133.443C220.154 133.736 219.387 133.883 218.556 133.883C217.496 133.883 216.535 133.671 215.671 133.247C214.807 132.807 214.122 132.163 213.616 131.315C213.127 130.451 212.883 129.408 212.883 128.185C212.883 126.392 213.405 124.966 214.448 123.906C215.507 122.83 216.958 122.292 218.8 122.292C221.018 122.292 222.591 123.034 223.52 124.517C224.465 125.984 224.938 128.242 224.938 131.291C224.938 133.394 224.759 135.114 224.4 136.45C224.058 137.787 223.455 138.798 222.591 139.482C221.727 140.167 220.528 140.509 218.996 140.509C217.252 140.509 215.907 140.053 214.961 139.14C214.016 138.227 213.486 137.078 213.372 135.692H215.939ZM219.045 131.535C220.023 131.535 220.789 131.234 221.344 130.631C221.914 130.011 222.199 129.196 222.199 128.185C222.199 127.06 221.898 126.188 221.295 125.569C220.708 124.933 219.901 124.615 218.874 124.615C217.847 124.615 217.032 124.941 216.429 125.593C215.842 126.229 215.548 127.069 215.548 128.112C215.548 129.106 215.834 129.93 216.404 130.582C216.991 131.217 217.871 131.535 219.045 131.535ZM231.461 135.692C231.624 136.507 231.975 137.127 232.513 137.551C233.051 137.975 233.776 138.186 234.689 138.186C235.847 138.186 236.694 137.73 237.232 136.817C237.77 135.904 238.039 134.347 238.039 132.147C237.648 132.701 237.094 133.133 236.376 133.443C235.675 133.736 234.909 133.883 234.078 133.883C233.018 133.883 232.056 133.671 231.192 133.247C230.328 132.807 229.644 132.163 229.138 131.315C228.649 130.451 228.405 129.408 228.405 128.185C228.405 126.392 228.926 124.966 229.97 123.906C231.029 122.83 232.48 122.292 234.322 122.292C236.539 122.292 238.113 123.034 239.042 124.517C239.987 125.984 240.46 128.242 240.46 131.291C240.46 133.394 240.281 135.114 239.922 136.45C239.58 137.787 238.977 138.798 238.113 139.482C237.249 140.167 236.05 140.509 234.518 140.509C232.774 140.509 231.429 140.053 230.483 139.14C229.538 138.227 229.008 137.078 228.894 135.692H231.461ZM234.567 131.535C235.545 131.535 236.311 131.234 236.865 130.631C237.436 130.011 237.721 129.196 237.721 128.185C237.721 127.06 237.42 126.188 236.817 125.569C236.23 124.933 235.423 124.615 234.396 124.615C233.369 124.615 232.554 124.941 231.95 125.593C231.364 126.229 231.07 127.069 231.07 128.112C231.07 129.106 231.355 129.93 231.926 130.582C232.513 131.217 233.393 131.535 234.567 131.535Z" fill="#292E37"/>
<path d="M118.538 63.3819L114.906 70.3259V74.5339H113.45V70.3259L109.802 63.3819H111.418L114.17 69.0299L116.922 63.3819H118.538ZM128.394 69.8139C128.394 70.0913 128.378 70.3846 128.346 70.6939H121.338C121.391 71.5579 121.685 72.2353 122.218 72.7259C122.762 73.2059 123.418 73.4459 124.186 73.4459C124.815 73.4459 125.338 73.3019 125.754 73.0139C126.181 72.7153 126.479 72.3206 126.65 71.8299H128.218C127.983 72.6726 127.514 73.3606 126.81 73.8939C126.106 74.4166 125.231 74.6779 124.186 74.6779C123.354 74.6779 122.607 74.4913 121.946 74.1179C121.295 73.7446 120.783 73.2166 120.41 72.5339C120.037 71.8406 119.85 71.0406 119.85 70.1339C119.85 69.2273 120.031 68.4326 120.394 67.7499C120.757 67.0673 121.263 66.5446 121.914 66.1819C122.575 65.8086 123.333 65.6219 124.186 65.6219C125.018 65.6219 125.754 65.8033 126.394 66.1659C127.034 66.5286 127.525 67.0299 127.866 67.6699C128.218 68.2993 128.394 69.0139 128.394 69.8139ZM126.89 69.5099C126.89 68.9553 126.767 68.4806 126.522 68.0859C126.277 67.6806 125.941 67.3766 125.514 67.1739C125.098 66.9606 124.634 66.8539 124.122 66.8539C123.386 66.8539 122.757 67.0886 122.234 67.5579C121.722 68.0273 121.429 68.6779 121.354 69.5099H126.89ZM130.092 70.1179C130.092 69.2219 130.273 68.4379 130.636 67.7659C130.998 67.0833 131.494 66.5553 132.124 66.1819C132.764 65.8086 133.473 65.6219 134.252 65.6219C135.02 65.6219 135.686 65.7873 136.252 66.1179C136.817 66.4486 137.238 66.8646 137.516 67.3659V65.7659H138.988V74.5339H137.516V72.9019C137.228 73.4139 136.796 73.8406 136.22 74.1819C135.654 74.5126 134.993 74.6779 134.236 74.6779C133.457 74.6779 132.753 74.4859 132.124 74.1019C131.494 73.7179 130.998 73.1793 130.636 72.4859C130.273 71.7926 130.092 71.0033 130.092 70.1179ZM137.516 70.1339C137.516 69.4726 137.382 68.8966 137.116 68.4059C136.849 67.9153 136.486 67.5419 136.028 67.2859C135.58 67.0193 135.084 66.8859 134.54 66.8859C133.996 66.8859 133.5 67.0139 133.052 67.2699C132.604 67.5259 132.246 67.8993 131.98 68.3899C131.713 68.8806 131.58 69.4566 131.58 70.1179C131.58 70.7899 131.713 71.3766 131.98 71.8779C132.246 72.3686 132.604 72.7473 133.052 73.0139C133.5 73.2699 133.996 73.3979 134.54 73.3979C135.084 73.3979 135.58 73.2699 136.028 73.0139C136.486 72.7473 136.849 72.3686 137.116 71.8779C137.382 71.3766 137.516 70.7953 137.516 70.1339ZM143.224 67.1899C143.48 66.6886 143.843 66.2993 144.312 66.0219C144.792 65.7446 145.374 65.6059 146.056 65.6059V67.1099H145.672C144.04 67.1099 143.224 67.9953 143.224 69.7659V74.5339H141.768V65.7659H143.224V67.1899ZM149.513 62.6939V74.5339H148.057V62.6939H149.513ZM159.866 65.7659L154.586 78.6619H153.082L154.81 74.4379L151.274 65.7659H152.89L155.642 72.8699L158.362 65.7659H159.866ZM173.692 66.6459C173.692 67.5739 173.372 68.3473 172.732 68.9659C172.102 69.5739 171.137 69.8779 169.836 69.8779H167.692V74.5339H166.236V63.3819H169.836C171.094 63.3819 172.049 63.6859 172.7 64.2939C173.361 64.9019 173.692 65.6859 173.692 66.6459ZM169.836 68.6779C170.646 68.6779 171.244 68.5019 171.628 68.1499C172.012 67.7979 172.204 67.2966 172.204 66.6459C172.204 65.2699 171.414 64.5819 169.836 64.5819H167.692V68.6779H169.836ZM175.277 70.1179C175.277 69.2219 175.459 68.4379 175.821 67.7659C176.184 67.0833 176.68 66.5553 177.309 66.1819C177.949 65.8086 178.659 65.6219 179.437 65.6219C180.205 65.6219 180.872 65.7873 181.437 66.1179C182.003 66.4486 182.424 66.8646 182.701 67.3659V65.7659H184.173V74.5339H182.701V72.9019C182.413 73.4139 181.981 73.8406 181.405 74.1819C180.84 74.5126 180.179 74.6779 179.421 74.6779C178.643 74.6779 177.939 74.4859 177.309 74.1019C176.68 73.7179 176.184 73.1793 175.821 72.4859C175.459 71.7926 175.277 71.0033 175.277 70.1179ZM182.701 70.1339C182.701 69.4726 182.568 68.8966 182.301 68.4059C182.035 67.9153 181.672 67.5419 181.213 67.2859C180.765 67.0193 180.269 66.8859 179.725 66.8859C179.181 66.8859 178.685 67.0139 178.237 67.2699C177.789 67.5259 177.432 67.8993 177.165 68.3899C176.899 68.8806 176.765 69.4566 176.765 70.1179C176.765 70.7899 176.899 71.3766 177.165 71.8779C177.432 72.3686 177.789 72.7473 178.237 73.0139C178.685 73.2699 179.181 73.3979 179.725 73.3979C180.269 73.3979 180.765 73.2699 181.213 73.0139C181.672 72.7473 182.035 72.3686 182.301 71.8779C182.568 71.3766 182.701 70.7953 182.701 70.1339ZM186.41 70.1339C186.41 69.2273 186.591 68.4379 186.954 67.7659C187.317 67.0833 187.818 66.5553 188.458 66.1819C189.109 65.8086 189.85 65.6219 190.682 65.6219C191.759 65.6219 192.645 65.8833 193.338 66.4059C194.042 66.9286 194.506 67.6539 194.73 68.5819H193.162C193.013 68.0486 192.719 67.6273 192.282 67.3179C191.855 67.0086 191.322 66.8539 190.682 66.8539C189.85 66.8539 189.178 67.1419 188.666 67.7179C188.154 68.2833 187.898 69.0886 187.898 70.1339C187.898 71.1899 188.154 72.0059 188.666 72.5819C189.178 73.1579 189.85 73.4459 190.682 73.4459C191.322 73.4459 191.855 73.2966 192.282 72.9979C192.709 72.6993 193.002 72.2726 193.162 71.7179H194.73C194.495 72.6139 194.026 73.3339 193.322 73.8779C192.618 74.4113 191.738 74.6779 190.682 74.6779C189.85 74.6779 189.109 74.4913 188.458 74.1179C187.818 73.7446 187.317 73.2166 186.954 72.5339C186.591 71.8513 186.41 71.0513 186.41 70.1339ZM201.889 74.5339L198.449 70.6619V74.5339H196.993V62.6939H198.449V69.6539L201.825 65.7659H203.857L199.729 70.1339L203.873 74.5339H201.889ZM205.003 70.1179C205.003 69.2219 205.184 68.4379 205.547 67.7659C205.91 67.0833 206.406 66.5553 207.035 66.1819C207.675 65.8086 208.384 65.6219 209.163 65.6219C209.931 65.6219 210.598 65.7873 211.163 66.1179C211.728 66.4486 212.15 66.8646 212.427 67.3659V65.7659H213.899V74.5339H212.427V72.9019C212.139 73.4139 211.707 73.8406 211.131 74.1819C210.566 74.5126 209.904 74.6779 209.147 74.6779C208.368 74.6779 207.664 74.4859 207.035 74.1019C206.406 73.7179 205.91 73.1793 205.547 72.4859C205.184 71.7926 205.003 71.0033 205.003 70.1179ZM212.427 70.1339C212.427 69.4726 212.294 68.8966 212.027 68.4059C211.76 67.9153 211.398 67.5419 210.939 67.2859C210.491 67.0193 209.995 66.8859 209.451 66.8859C208.907 66.8859 208.411 67.0139 207.963 67.2699C207.515 67.5259 207.158 67.8993 206.891 68.3899C206.624 68.8806 206.491 69.4566 206.491 70.1179C206.491 70.7899 206.624 71.3766 206.891 71.8779C207.158 72.3686 207.515 72.7473 207.963 73.0139C208.411 73.2699 208.907 73.3979 209.451 73.3979C209.995 73.3979 210.491 73.2699 210.939 73.0139C211.398 72.7473 211.76 72.3686 212.027 71.8779C212.294 71.3766 212.427 70.7953 212.427 70.1339ZM220.295 65.6219C221.053 65.6219 221.714 65.7873 222.279 66.1179C222.855 66.4486 223.282 66.8646 223.559 67.3659V65.7659H225.031V74.7259C225.031 75.5259 224.861 76.2353 224.519 76.8539C224.178 77.4833 223.687 77.9739 223.047 78.3259C222.418 78.6779 221.682 78.8539 220.839 78.8539C219.687 78.8539 218.727 78.5819 217.959 78.0379C217.191 77.4939 216.738 76.7526 216.599 75.8139H218.039C218.199 76.3473 218.53 76.7739 219.031 77.0939C219.533 77.4246 220.135 77.5899 220.839 77.5899C221.639 77.5899 222.29 77.3393 222.791 76.8379C223.303 76.3366 223.559 75.6326 223.559 74.7259V72.8859C223.271 73.3979 222.845 73.8246 222.279 74.1659C221.714 74.5073 221.053 74.6779 220.295 74.6779C219.517 74.6779 218.807 74.4859 218.167 74.1019C217.538 73.7179 217.042 73.1793 216.679 72.4859C216.317 71.7926 216.135 71.0033 216.135 70.1179C216.135 69.2219 216.317 68.4379 216.679 67.7659C217.042 67.0833 217.538 66.5553 218.167 66.1819C218.807 65.8086 219.517 65.6219 220.295 65.6219ZM223.559 70.1339C223.559 69.4726 223.426 68.8966 223.159 68.4059C222.893 67.9153 222.53 67.5419 222.071 67.2859C221.623 67.0193 221.127 66.8859 220.583 66.8859C220.039 66.8859 219.543 67.0139 219.095 67.2699C218.647 67.5259 218.29 67.8993 218.023 68.3899C217.757 68.8806 217.623 69.4566 217.623 70.1179C217.623 70.7899 217.757 71.3766 218.023 71.8779C218.29 72.3686 218.647 72.7473 219.095 73.0139C219.543 73.2699 220.039 73.3979 220.583 73.3979C221.127 73.3979 221.623 73.2699 222.071 73.0139C222.53 72.7473 222.893 72.3686 223.159 71.8779C223.426 71.3766 223.559 70.7953 223.559 70.1339ZM235.812 69.8139C235.812 70.0913 235.796 70.3846 235.764 70.6939H228.756C228.809 71.5579 229.103 72.2353 229.636 72.7259C230.18 73.2059 230.836 73.4459 231.604 73.4459C232.233 73.4459 232.756 73.3019 233.172 73.0139C233.599 72.7153 233.897 72.3206 234.068 71.8299H235.636C235.401 72.6726 234.932 73.3606 234.228 73.8939C233.524 74.4166 232.649 74.6779 231.604 74.6779C230.772 74.6779 230.025 74.4913 229.364 74.1179C228.713 73.7446 228.201 73.2166 227.828 72.5339C227.455 71.8406 227.268 71.0406 227.268 70.1339C227.268 69.2273 227.449 68.4326 227.812 67.7499C228.175 67.0673 228.681 66.5446 229.332 66.1819C229.993 65.8086 230.751 65.6219 231.604 65.6219C232.436 65.6219 233.172 65.8033 233.812 66.1659C234.452 66.5286 234.943 67.0299 235.284 67.6699C235.636 68.2993 235.812 69.0139 235.812 69.8139ZM234.308 69.5099C234.308 68.9553 234.185 68.4806 233.94 68.0859C233.695 67.6806 233.359 67.3766 232.932 67.1739C232.516 66.9606 232.052 66.8539 231.54 66.8539C230.804 66.8539 230.175 67.0886 229.652 67.5579C229.14 68.0273 228.847 68.6779 228.772 69.5099H234.308Z" fill="#95949A"/>
<path d="M152.663 43.84C153.45 43.9867 154.097 44.38 154.603 45.02C155.11 45.66 155.363 46.3933 155.363 47.22C155.363 47.9667 155.177 48.6267 154.803 49.2C154.443 49.76 153.917 50.2 153.223 50.52C152.53 50.84 151.71 51 150.763 51H144.743V37.04H150.503C151.45 37.04 152.263 37.1933 152.943 37.5C153.637 37.8067 154.157 38.2333 154.503 38.78C154.863 39.3267 155.043 39.9467 155.043 40.64C155.043 41.4533 154.823 42.1333 154.383 42.68C153.957 43.2267 153.383 43.6133 152.663 43.84ZM147.543 42.8H150.103C150.77 42.8 151.283 42.6533 151.643 42.36C152.003 42.0533 152.183 41.62 152.183 41.06C152.183 40.5 152.003 40.0667 151.643 39.76C151.283 39.4533 150.77 39.3 150.103 39.3H147.543V42.8ZM150.363 48.72C151.043 48.72 151.57 48.56 151.943 48.24C152.33 47.92 152.523 47.4667 152.523 46.88C152.523 46.28 152.323 45.8133 151.923 45.48C151.523 45.1333 150.983 44.96 150.303 44.96H147.543V48.72H150.363ZM166.155 48.34H160.595L159.675 51H156.735L161.755 37.02H165.015L170.035 51H167.075L166.155 48.34ZM165.395 46.1L163.375 40.26L161.355 46.1H165.395ZM176.731 51.14C175.758 51.14 174.878 50.9733 174.091 50.64C173.318 50.3067 172.705 49.8267 172.251 49.2C171.798 48.5733 171.565 47.8333 171.551 46.98H174.551C174.591 47.5533 174.791 48.0067 175.151 48.34C175.525 48.6733 176.031 48.84 176.671 48.84C177.325 48.84 177.838 48.6867 178.211 48.38C178.585 48.06 178.771 47.6467 178.771 47.14C178.771 46.7267 178.645 46.3867 178.391 46.12C178.138 45.8533 177.818 45.6467 177.431 45.5C177.058 45.34 176.538 45.1667 175.871 44.98C174.965 44.7133 174.225 44.4533 173.651 44.2C173.091 43.9333 172.605 43.54 172.191 43.02C171.791 42.4867 171.591 41.78 171.591 40.9C171.591 40.0733 171.798 39.3533 172.211 38.74C172.625 38.1267 173.205 37.66 173.951 37.34C174.698 37.0067 175.551 36.84 176.511 36.84C177.951 36.84 179.118 37.1933 180.011 37.9C180.918 38.5933 181.418 39.5667 181.511 40.82H178.431C178.405 40.34 178.198 39.9467 177.811 39.64C177.438 39.32 176.938 39.16 176.311 39.16C175.765 39.16 175.325 39.3 174.991 39.58C174.671 39.86 174.511 40.2667 174.511 40.8C174.511 41.1733 174.631 41.4867 174.871 41.74C175.125 41.98 175.431 42.18 175.791 42.34C176.165 42.4867 176.685 42.66 177.351 42.86C178.258 43.1267 178.998 43.3933 179.571 43.66C180.145 43.9267 180.638 44.3267 181.051 44.86C181.465 45.3933 181.671 46.0933 181.671 46.96C181.671 47.7067 181.478 48.4 181.091 49.04C180.705 49.68 180.138 50.1933 179.391 50.58C178.645 50.9533 177.758 51.14 176.731 51.14ZM186.899 37.04V51H184.099V37.04H186.899ZM188.985 44C188.985 42.6267 189.292 41.4 189.905 40.32C190.532 39.2267 191.378 38.38 192.445 37.78C193.525 37.1667 194.732 36.86 196.065 36.86C197.625 36.86 198.992 37.26 200.165 38.06C201.338 38.86 202.158 39.9667 202.625 41.38H199.405C199.085 40.7133 198.632 40.2133 198.045 39.88C197.472 39.5467 196.805 39.38 196.045 39.38C195.232 39.38 194.505 39.5733 193.865 39.96C193.238 40.3333 192.745 40.8667 192.385 41.56C192.038 42.2533 191.865 43.0667 191.865 44C191.865 44.92 192.038 45.7333 192.385 46.44C192.745 47.1333 193.238 47.6733 193.865 48.06C194.505 48.4333 195.232 48.62 196.045 48.62C196.805 48.62 197.472 48.4533 198.045 48.12C198.632 47.7733 199.085 47.2667 199.405 46.6H202.625C202.158 48.0267 201.338 49.14 200.165 49.94C199.005 50.7267 197.638 51.12 196.065 51.12C194.732 51.12 193.525 50.82 192.445 50.22C191.378 49.6067 190.532 48.76 189.905 47.68C189.292 46.6 188.985 45.3733 188.985 44Z" fill="#292E37"/>
<defs>
<filter id="filter0_d_1_1427" x="65" y="355" width="218" height="100" filterUnits="userSpaceOnUse" color-interpolation-filters="sRGB">
<feFlood flood-opacity="0" result="BackgroundImageFix"/>
<feColorMatrix in="SourceAlpha" type="matrix" values="0 0 0 0 0 0 0 0 0 0 0 0 0 0 0 0 0 0 127 0" result="hardAlpha"/>
<feMorphology radius="16" operator="erode" in="SourceAlpha" result="effect1_dropShadow_1_1427"/>
<feOffset dy="24"/>
<feGaussianBlur stdDeviation="15"/>
<feColorMatrix type="matrix" values="0 0 0 0 1 0 0 0 0 0.356863 0 0 0 0 0.027451 0 0 0 0.06 0"/>
<feBlend mode="normal" in2="BackgroundImageFix" result="effect1_dropShadow_1_1427"/>
<feBlend mode="normal" in="SourceGraphic" in2="effect1_dropShadow_1_1427" result="shape"/>
</filter>
<linearGradient id="paint0_linear_1_1427" x1="83" y1="392" x2="266.5" y2="392.5" gradientUnits="userSpaceOnUse">
<stop offset="0.265795" stop-color="#FF6110"/>
<stop offset="1" stop-color="#FF5600"/>
</linearGradient>
</defs>
</svg>
