<svg width="364" height="180" viewBox="0 0 364 180" fill="none" xmlns="http://www.w3.org/2000/svg">
<rect x="1" y="1.00012" width="362" height="161" rx="27" stroke="#EAF1FB" stroke-width="2"/>
<rect x="12" y="18.0001" width="340" height="150" rx="27" stroke="#EAF1FB" stroke-width="2"/>
<path d="M176.98 84.2001C176.98 82.2775 177.409 80.5601 178.268 79.0481C179.145 77.5175 180.331 76.3321 181.824 75.4921C183.336 74.6335 185.025 74.2041 186.892 74.2041C189.076 74.2041 190.989 74.7641 192.632 75.8841C194.275 77.0041 195.423 78.5535 196.076 80.5321H191.568C191.12 79.5988 190.485 78.8988 189.664 78.4321C188.861 77.9655 187.928 77.7321 186.864 77.7321C185.725 77.7321 184.708 78.0028 183.812 78.5441C182.935 79.0668 182.244 79.8135 181.74 80.7841C181.255 81.7548 181.012 82.8935 181.012 84.2001C181.012 85.4881 181.255 86.6268 181.74 87.6161C182.244 88.5868 182.935 89.3428 183.812 89.8841C184.708 90.4068 185.725 90.6681 186.864 90.6681C187.928 90.6681 188.861 90.4348 189.664 89.9681C190.485 89.4828 191.12 88.7735 191.568 87.8401H196.076C195.423 89.8375 194.275 91.3961 192.632 92.5161C191.008 93.6175 189.095 94.1681 186.892 94.1681C185.025 94.1681 183.336 93.7481 181.824 92.9081C180.331 92.0495 179.145 90.8641 178.268 89.3521C177.409 87.8401 176.98 86.1228 176.98 84.2001ZM208.16 78.2641C209.336 78.2641 210.382 78.5255 211.296 79.0481C212.211 79.5521 212.92 80.3081 213.424 81.3161C213.947 82.3055 214.208 83.5001 214.208 84.9001V94.0001H210.288V85.4321C210.288 84.2001 209.98 83.2575 209.364 82.6041C208.748 81.9321 207.908 81.5961 206.844 81.5961C205.762 81.5961 204.903 81.9321 204.268 82.6041C203.652 83.2575 203.344 84.2001 203.344 85.4321V94.0001H199.424V73.2801H203.344V80.4201C203.848 79.7481 204.52 79.2255 205.36 78.8521C206.2 78.4601 207.134 78.2641 208.16 78.2641ZM232.356 85.9081C232.356 86.4681 232.319 86.9721 232.244 87.4201H220.904C220.997 88.5401 221.389 89.4175 222.08 90.0521C222.771 90.6868 223.62 91.0041 224.628 91.0041C226.084 91.0041 227.12 90.3788 227.736 89.1281H231.964C231.516 90.6215 230.657 91.8535 229.388 92.8241C228.119 93.7761 226.56 94.2521 224.712 94.2521C223.219 94.2521 221.875 93.9255 220.68 93.2721C219.504 92.6001 218.58 91.6575 217.908 90.4441C217.255 89.2308 216.928 87.8308 216.928 86.2441C216.928 84.6388 217.255 83.2295 217.908 82.0161C218.561 80.8028 219.476 79.8695 220.652 79.2161C221.828 78.5628 223.181 78.2361 224.712 78.2361C226.187 78.2361 227.503 78.5535 228.66 79.1881C229.836 79.8228 230.741 80.7281 231.376 81.9041C232.029 83.0615 232.356 84.3961 232.356 85.9081ZM228.296 84.7881C228.277 83.7801 227.913 82.9775 227.204 82.3801C226.495 81.7641 225.627 81.4561 224.6 81.4561C223.629 81.4561 222.808 81.7548 222.136 82.3521C221.483 82.9308 221.081 83.7428 220.932 84.7881H228.296ZM234.209 86.1881C234.209 84.6201 234.517 83.2295 235.133 82.0161C235.768 80.8028 236.617 79.8695 237.681 79.2161C238.764 78.5628 239.968 78.2361 241.293 78.2361C242.45 78.2361 243.458 78.4695 244.317 78.9361C245.194 79.4028 245.894 79.9908 246.417 80.7001V78.4881H250.365V94.0001H246.417V91.7321C245.913 92.4601 245.213 93.0668 244.317 93.5521C243.44 94.0188 242.422 94.2521 241.265 94.2521C239.958 94.2521 238.764 93.9161 237.681 93.2441C236.617 92.5721 235.768 91.6295 235.133 90.4161C234.517 89.1841 234.209 87.7748 234.209 86.1881ZM246.417 86.2441C246.417 85.2921 246.23 84.4801 245.857 83.8081C245.484 83.1175 244.98 82.5948 244.345 82.2401C243.71 81.8668 243.029 81.6801 242.301 81.6801C241.573 81.6801 240.901 81.8575 240.285 82.2121C239.669 82.5668 239.165 83.0895 238.773 83.7801C238.4 84.4521 238.213 85.2548 238.213 86.1881C238.213 87.1215 238.4 87.9428 238.773 88.6521C239.165 89.3428 239.669 89.8748 240.285 90.2481C240.92 90.6215 241.592 90.8081 242.301 90.8081C243.029 90.8081 243.71 90.6308 244.345 90.2761C244.98 89.9028 245.484 89.3801 245.857 88.7081C246.23 88.0175 246.417 87.1961 246.417 86.2441ZM258.114 80.7281C258.618 80.0188 259.308 79.4308 260.186 78.9641C261.082 78.4788 262.099 78.2361 263.238 78.2361C264.563 78.2361 265.758 78.5628 266.822 79.2161C267.904 79.8695 268.754 80.8028 269.37 82.0161C270.004 83.2108 270.322 84.6015 270.322 86.1881C270.322 87.7748 270.004 89.1841 269.37 90.4161C268.754 91.6295 267.904 92.5721 266.822 93.2441C265.758 93.9161 264.563 94.2521 263.238 94.2521C262.099 94.2521 261.091 94.0188 260.214 93.5521C259.355 93.0855 258.655 92.4975 258.114 91.7881V101.392H254.194V78.4881H258.114V80.7281ZM266.318 86.1881C266.318 85.2548 266.122 84.4521 265.73 83.7801C265.356 83.0895 264.852 82.5668 264.218 82.2121C263.602 81.8575 262.93 81.6801 262.202 81.6801C261.492 81.6801 260.82 81.8668 260.186 82.2401C259.57 82.5948 259.066 83.1175 258.674 83.8081C258.3 84.4988 258.114 85.3108 258.114 86.2441C258.114 87.1775 258.3 87.9895 258.674 88.6801C259.066 89.3708 259.57 89.9028 260.186 90.2761C260.82 90.6308 261.492 90.8081 262.202 90.8081C262.93 90.8081 263.602 90.6215 264.218 90.2481C264.852 89.8748 265.356 89.3428 265.73 88.6521C266.122 87.9615 266.318 87.1401 266.318 86.1881ZM287.59 85.9081C287.59 86.4681 287.553 86.9721 287.478 87.4201H276.138C276.232 88.5401 276.624 89.4175 277.314 90.0521C278.005 90.6868 278.854 91.0041 279.862 91.0041C281.318 91.0041 282.354 90.3788 282.97 89.1281H287.198C286.75 90.6215 285.892 91.8535 284.622 92.8241C283.353 93.7761 281.794 94.2521 279.946 94.2521C278.453 94.2521 277.109 93.9255 275.914 93.2721C274.738 92.6001 273.814 91.6575 273.142 90.4441C272.489 89.2308 272.162 87.8308 272.162 86.2441C272.162 84.6388 272.489 83.2295 273.142 82.0161C273.796 80.8028 274.71 79.8695 275.886 79.2161C277.062 78.5628 278.416 78.2361 279.946 78.2361C281.421 78.2361 282.737 78.5535 283.894 79.1881C285.07 79.8228 285.976 80.7281 286.61 81.9041C287.264 83.0615 287.59 84.3961 287.59 85.9081ZM283.53 84.7881C283.512 83.7801 283.148 82.9775 282.438 82.3801C281.729 81.7641 280.861 81.4561 279.834 81.4561C278.864 81.4561 278.042 81.7548 277.37 82.3521C276.717 82.9308 276.316 83.7428 276.166 84.7881H283.53ZM294.372 80.8961C294.876 80.0748 295.529 79.4308 296.332 78.9641C297.153 78.4975 298.086 78.2641 299.132 78.2641V82.3801H298.096C296.864 82.3801 295.93 82.6695 295.296 83.2481C294.68 83.8268 294.372 84.8348 294.372 86.2721V94.0001H290.452V78.4881H294.372V80.8961Z" fill="#292E37"/>
<g filter="url(#filter0_d_1_1638)">
<circle cx="96" cy="85.0001" r="50" fill="#FF5600"/>
</g>
<g clip-path="url(#clip0_1_1638)">
<path d="M116.885 87.9773L99.4275 105.458C98.3976 106.486 97.0452 107 95.6932 107C94.3416 107 92.9906 106.487 91.9616 105.459L74.2977 87.9876C73.115 86.8066 72.7651 85.0546 73.4006 83.5179C74.0371 81.9798 75.5247 80.9859 77.1909 80.9859H83.0171V75.8879C83.0171 74.917 83.8043 74.1297 84.7752 74.1297C85.7461 74.1297 86.533 74.917 86.533 75.8879V82.7437C86.533 83.7146 85.7461 84.5015 84.7752 84.5015H77.1909C76.8496 84.5015 76.7051 84.7274 76.6495 84.8623C76.5818 85.0254 76.5492 85.2671 76.7758 85.4937L94.4401 102.965C95.1339 103.659 96.2535 103.659 96.9419 102.971L114.397 85.493C114.624 85.2664 114.591 85.0247 114.523 84.8616C114.467 84.7274 114.323 84.5015 113.982 84.5015H106.749C105.778 84.5015 104.991 83.7146 104.991 82.7437V75.8875C104.991 74.9166 105.778 74.1297 106.749 74.1297C107.72 74.1297 108.507 74.9166 108.507 75.8875V80.9855H113.982C115.646 80.9855 117.134 81.9784 117.771 83.5151C118.407 85.0498 118.06 86.8014 116.885 87.9773ZM84.7752 65.5161C85.7461 65.5161 86.533 64.7289 86.533 63.7579C86.533 62.787 85.7461 62.0001 84.7752 62.0001C83.8043 62.0001 83.0171 62.787 83.0171 63.7579C83.0171 64.7289 83.8043 65.5161 84.7752 65.5161ZM84.7752 71.6688C85.7461 71.6688 86.533 70.8815 86.533 69.9106C86.533 68.94 85.7461 68.1528 84.7752 68.1528C83.8043 68.1528 83.0171 68.94 83.0171 69.9106C83.0171 70.8815 83.8043 71.6688 84.7752 71.6688ZM106.749 65.5161C107.72 65.5161 108.507 64.7289 108.507 63.7579C108.507 62.787 107.72 62.0001 106.749 62.0001C105.778 62.0001 104.991 62.787 104.991 63.7579C104.991 64.7289 105.778 65.5161 106.749 65.5161ZM106.749 71.6688C107.72 71.6688 108.507 70.8815 108.507 69.9106C108.507 68.94 107.72 68.1528 106.749 68.1528C105.778 68.1528 104.991 68.94 104.991 69.9106C104.991 70.8815 105.778 71.6688 106.749 71.6688ZM96.6968 88.369H94.0789C93.6601 88.369 93.2096 88.1284 93.2096 87.6C93.2096 86.6291 92.4224 85.8422 91.4518 85.8422C90.4809 85.8422 89.6937 86.6291 89.6937 87.6C89.6937 89.949 91.5349 91.7992 93.9145 91.8809V92.8518C93.9145 93.8227 94.7014 94.6096 95.6723 94.6096C96.6432 94.6096 97.4304 93.8227 97.4304 92.8518V91.8338C99.8485 91.4974 101.651 89.5174 101.651 87.0507V85.9819C101.651 84.6536 101.131 83.4125 100.187 82.4879C99.2562 81.5757 98.0165 81.0738 96.6968 81.0738H95.0859C94.3117 81.0738 93.6573 80.3892 93.6573 79.5793V78.9383C93.6573 78.1514 94.2715 77.5578 95.0859 77.5578H96.6092C97.0569 77.5578 97.52 77.8575 97.52 78.3591C97.52 79.33 98.3073 80.1169 99.2779 80.1169C100.249 80.1169 101.036 79.33 101.036 78.3591C101.036 76.2521 99.4801 74.4943 97.4304 74.1177V72.9871C97.4304 72.0162 96.6435 71.2293 95.6726 71.2293C94.7017 71.2293 93.9145 72.0162 93.9145 72.9871V74.1781C93.0445 74.3834 92.2476 74.817 91.6012 75.4494C90.6598 76.3706 90.1413 77.6096 90.1413 78.9383V79.5793C90.1413 82.342 92.3596 84.5894 95.0859 84.5894H96.6968C97.5036 84.5894 98.1353 85.2012 98.1353 85.9819V87.0507C98.1353 87.9162 97.4116 88.369 96.6968 88.369Z" fill="white"/>
</g>
<defs>
<filter id="filter0_d_1_1638" x="31" y="35.0001" width="130" height="145" filterUnits="userSpaceOnUse" color-interpolation-filters="sRGB">
<feFlood flood-opacity="0" result="BackgroundImageFix"/>
<feColorMatrix in="SourceAlpha" type="matrix" values="0 0 0 0 0 0 0 0 0 0 0 0 0 0 0 0 0 0 127 0" result="hardAlpha"/>
<feMorphology radius="20" operator="erode" in="SourceAlpha" result="effect1_dropShadow_1_1638"/>
<feOffset dy="30"/>
<feGaussianBlur stdDeviation="17.5"/>
<feColorMatrix type="matrix" values="0 0 0 0 0.979167 0 0 0 0 0.330229 0 0 0 0 0 0 0 0 0.3 0"/>
<feBlend mode="normal" in2="BackgroundImageFix" result="effect1_dropShadow_1_1638"/>
<feBlend mode="normal" in="SourceGraphic" in2="effect1_dropShadow_1_1638" result="shape"/>
</filter>
<clipPath id="clip0_1_1638">
<rect width="45" height="45" fill="white" transform="translate(73 62.0001)"/>
</clipPath>
</defs>
</svg>
