<svg width="234" height="135" viewBox="0 0 234 135" fill="none" xmlns="http://www.w3.org/2000/svg">
<g filter="url(#filter0_d_1_1646)">
<circle cx="65" cy="50.0001" r="50" fill="#00D9FF"/>
</g>
<path d="M159 39.4561V42.6201H150.852V47.6321H157.096V50.7401H150.852V59.0001H146.932V39.4561H159ZM160.772 51.1881C160.772 49.6201 161.08 48.2295 161.696 47.0161C162.33 45.8028 163.18 44.8695 164.244 44.2161C165.326 43.5628 166.53 43.2361 167.856 43.2361C169.013 43.2361 170.021 43.4695 170.88 43.9361C171.757 44.4028 172.457 44.9908 172.98 45.7001V43.4881H176.928V59.0001H172.98V56.7321C172.476 57.4601 171.776 58.0668 170.88 58.5521C170.002 59.0188 168.985 59.2521 167.828 59.2521C166.521 59.2521 165.326 58.9161 164.244 58.2441C163.18 57.5721 162.33 56.6295 161.696 55.4161C161.08 54.1841 160.772 52.7748 160.772 51.1881ZM172.98 51.2441C172.98 50.2921 172.793 49.4801 172.42 48.8081C172.046 48.1175 171.542 47.5948 170.908 47.2401C170.273 46.8668 169.592 46.6801 168.864 46.6801C168.136 46.6801 167.464 46.8575 166.848 47.2121C166.232 47.5668 165.728 48.0895 165.336 48.7801C164.962 49.4521 164.776 50.2548 164.776 51.1881C164.776 52.1215 164.962 52.9428 165.336 53.6521C165.728 54.3428 166.232 54.8748 166.848 55.2481C167.482 55.6215 168.154 55.8081 168.864 55.8081C169.592 55.8081 170.273 55.6308 170.908 55.2761C171.542 54.9028 172.046 54.3801 172.42 53.7081C172.793 53.0175 172.98 52.1961 172.98 51.2441ZM186.692 59.2521C185.423 59.2521 184.284 59.0281 183.276 58.5801C182.268 58.1135 181.466 57.4881 180.868 56.7041C180.29 55.9201 179.972 55.0521 179.916 54.1001H183.864C183.939 54.6975 184.228 55.1921 184.732 55.5841C185.255 55.9761 185.899 56.1721 186.664 56.1721C187.411 56.1721 187.99 56.0228 188.4 55.7241C188.83 55.4255 189.044 55.0428 189.044 54.5761C189.044 54.0721 188.783 53.6988 188.26 53.4561C187.756 53.1948 186.944 52.9148 185.824 52.6161C184.667 52.3361 183.715 52.0468 182.968 51.7481C182.24 51.4495 181.606 50.9921 181.064 50.3761C180.542 49.7601 180.28 48.9295 180.28 47.8841C180.28 47.0255 180.523 46.2415 181.008 45.5321C181.512 44.8228 182.222 44.2628 183.136 43.8521C184.07 43.4415 185.162 43.2361 186.412 43.2361C188.26 43.2361 189.735 43.7028 190.836 44.6361C191.938 45.5508 192.544 46.7921 192.656 48.3601H188.904C188.848 47.7441 188.587 47.2588 188.12 46.9041C187.672 46.5308 187.066 46.3441 186.3 46.3441C185.591 46.3441 185.04 46.4748 184.648 46.7361C184.275 46.9975 184.088 47.3615 184.088 47.8281C184.088 48.3508 184.35 48.7521 184.872 49.0321C185.395 49.2935 186.207 49.5641 187.308 49.8441C188.428 50.1241 189.352 50.4135 190.08 50.7121C190.808 51.0108 191.434 51.4775 191.956 52.1121C192.498 52.7281 192.778 53.5495 192.796 54.5761C192.796 55.4721 192.544 56.2748 192.04 56.9841C191.555 57.6935 190.846 58.2535 189.912 58.6641C188.998 59.0561 187.924 59.2521 186.692 59.2521ZM200.578 46.7081V54.2121C200.578 54.7348 200.699 55.1175 200.942 55.3601C201.203 55.5841 201.633 55.6961 202.23 55.6961H204.05V59.0001H201.586C198.282 59.0001 196.63 57.3948 196.63 54.1841V46.7081H194.782V43.4881H196.63V39.6521H200.578V43.4881H204.05V46.7081H200.578ZM221.29 50.9081C221.29 51.4681 221.252 51.9721 221.178 52.4201H209.838C209.931 53.5401 210.323 54.4175 211.014 55.0521C211.704 55.6868 212.554 56.0041 213.562 56.0041C215.018 56.0041 216.054 55.3788 216.67 54.1281H220.898C220.45 55.6215 219.591 56.8535 218.322 57.8241C217.052 58.7761 215.494 59.2521 213.646 59.2521C212.152 59.2521 210.808 58.9255 209.614 58.2721C208.438 57.6001 207.514 56.6575 206.842 55.4441C206.188 54.2308 205.861 52.8308 205.861 51.2441C205.861 49.6388 206.188 48.2295 206.842 47.0161C207.495 45.8028 208.41 44.8695 209.586 44.2161C210.762 43.5628 212.115 43.2361 213.646 43.2361C215.12 43.2361 216.436 43.5535 217.594 44.1881C218.77 44.8228 219.675 45.7281 220.31 46.9041C220.963 48.0615 221.29 49.3961 221.29 50.9081ZM217.23 49.7881C217.211 48.7801 216.847 47.9775 216.138 47.3801C215.428 46.7641 214.56 46.4561 213.534 46.4561C212.563 46.4561 211.742 46.7548 211.07 47.3521C210.416 47.9308 210.015 48.7428 209.866 49.7881H217.23ZM228.071 45.8961C228.575 45.0748 229.228 44.4308 230.031 43.9641C230.852 43.4975 231.785 43.2641 232.831 43.2641V47.3801H231.795C230.563 47.3801 229.629 47.6695 228.995 48.2481C228.379 48.8268 228.071 49.8348 228.071 51.2721V59.0001H224.151V43.4881H228.071V45.8961Z" fill="#292E37"/>
<g clip-path="url(#clip0_1_1646)">
<path d="M76.7416 42.9409L67.1959 45.0284L71.8633 28.6839C72.2688 27.2634 70.3694 26.3534 69.5177 27.5633L50.8988 54.016C50.1987 55.0106 51.1113 56.3455 52.2919 56.0547L60.7975 53.9609L56.1454 70.3209C55.7445 71.7306 57.6106 72.629 58.4723 71.4666L78.0824 45.0139C78.806 44.0375 77.9287 42.6815 76.7416 42.9409ZM60.6577 64.0913L63.9541 52.4988C64.2298 51.5295 63.3554 50.6159 62.3711 50.8582L55.0823 52.6525L67.1884 35.4531L64.0551 46.4254C63.7824 47.3804 64.6282 48.289 65.6043 48.0752L73.8709 46.2674L60.6577 64.0913Z" fill="white"/>
<path d="M75.8904 64.0904L72.7267 64.0377L74.407 60.733C74.737 60.084 74.4785 59.2904 73.8295 58.9605C73.1804 58.6304 72.3869 58.8891 72.0569 59.5381L69.4204 64.7232C68.8841 65.7747 69.586 66.4639 70.5969 66.6391L73.7531 66.6918L72.053 70.092C71.7274 70.7432 71.9913 71.535 72.6425 71.8607C73.295 72.1869 74.0861 71.921 74.4111 71.2712L77.0476 65.9982C77.4806 65.1318 76.854 64.1047 75.8904 64.0904Z" fill="white"/>
<path d="M55.3662 27.1428C54.715 26.8173 53.9232 27.0812 53.5976 27.7324L50.9611 33.0053C50.5323 33.863 51.1438 34.9131 52.1479 34.9131H55.2802L53.5976 38.2783C53.272 38.9295 53.536 39.7212 54.1871 40.0469C54.8396 40.3731 55.6308 40.1073 55.9558 39.4574L58.5922 34.1844C59.0309 33.3071 58.3857 32.2767 57.4131 32.2767H54.2732L55.9558 28.9115C56.2814 28.2603 56.0174 27.4684 55.3662 27.1428Z" fill="white"/>
</g>
<defs>
<filter id="filter0_d_1_1646" x="0" y="0.00012207" width="130" height="135" filterUnits="userSpaceOnUse" color-interpolation-filters="sRGB">
<feFlood flood-opacity="0" result="BackgroundImageFix"/>
<feColorMatrix in="SourceAlpha" type="matrix" values="0 0 0 0 0 0 0 0 0 0 0 0 0 0 0 0 0 0 127 0" result="hardAlpha"/>
<feMorphology radius="20" operator="erode" in="SourceAlpha" result="effect1_dropShadow_1_1646"/>
<feOffset dy="20"/>
<feGaussianBlur stdDeviation="17.5"/>
<feColorMatrix type="matrix" values="0 0 0 0 0 0 0 0 0 0.751699 0 0 0 0 0.883333 0 0 0 0.4 0"/>
<feBlend mode="normal" in2="BackgroundImageFix" result="effect1_dropShadow_1_1646"/>
<feBlend mode="normal" in="SourceGraphic" in2="effect1_dropShadow_1_1646" result="shape"/>
</filter>
<clipPath id="clip0_1_1646">
<rect width="45" height="45" fill="white" transform="translate(42 27.0001)"/>
</clipPath>
</defs>
</svg>
