<svg width="88" height="88" viewBox="0 0 88 88" fill="none" xmlns="http://www.w3.org/2000/svg">
<circle cx="44" cy="44" r="44" fill="#FFEEE5"/>
<g clip-path="url(#clip0_1_1252)" filter="url(#filter0_d_1_1252)">
<path d="M44.0306 31.9531L33.6406 37.9531V49.953L44.0306 55.9532L54.4208 49.953V37.9531L44.0306 31.9531ZM40.0186 45.8446L39.0236 46.8398L36.1371 43.9531L39.0236 41.0667L40.0186 42.0617L38.1271 43.9531L40.0186 45.8446ZM43.0039 47.5801L41.7453 46.9508L45.0575 40.3262L46.3161 40.9555L43.0039 47.5801ZM49.0378 46.8396L48.0426 45.8446L49.9343 43.9531L48.0426 42.0617L49.0378 41.0665L51.9243 43.9531L49.0378 46.8396Z" fill="#FF5600"/>
</g>
<defs>
<filter id="filter0_d_1_1252" x="17" y="27" width="54" height="54" filterUnits="userSpaceOnUse" color-interpolation-filters="sRGB">
<feFlood flood-opacity="0" result="BackgroundImageFix"/>
<feColorMatrix in="SourceAlpha" type="matrix" values="0 0 0 0 0 0 0 0 0 0 0 0 0 0 0 0 0 0 127 0" result="hardAlpha"/>
<feOffset dy="10"/>
<feGaussianBlur stdDeviation="7.5"/>
<feColorMatrix type="matrix" values="0 0 0 0 1 0 0 0 0 0.337255 0 0 0 0 0 0 0 0 0.2 0"/>
<feBlend mode="normal" in2="BackgroundImageFix" result="effect1_dropShadow_1_1252"/>
<feBlend mode="normal" in="SourceGraphic" in2="effect1_dropShadow_1_1252" result="shape"/>
</filter>
<clipPath id="clip0_1_1252">
<rect width="24" height="24" fill="white" transform="translate(32 32)"/>
</clipPath>
</defs>
</svg>
