<svg width="95" height="100" viewBox="0 0 95 100" fill="none" xmlns="http://www.w3.org/2000/svg">
<g filter="url(#filter0_d_1_1463)">
<circle cx="47.5" cy="32.5" r="32.5" fill="#001CAF"/>
</g>
<g clip-path="url(#clip0_1_1463)">
<path d="M62.9988 34.8394C62.9988 27.5817 57.0958 21.7755 49.838 21.7755C47.5155 21.7755 45.3866 22.3561 43.4512 23.4206L38.3224 18.2918C38.0321 18.0983 37.7417 18.0015 37.4514 18.0015C37.0644 18.0983 36.8708 18.2918 36.6773 18.5821L35.9031 20.9045L33.6774 21.6787C33.2903 21.8722 33.0968 22.0658 33 22.4529C33 22.7432 33.0968 23.0335 33.2903 23.3238L38.4191 28.4526C37.3547 30.388 36.774 32.6138 36.774 34.9362C36.774 42.194 42.677 48.0002 49.9348 48.0002C57.1925 48.0002 63.0956 42.0972 62.9988 34.8394ZM38.0321 20.711L42.29 24.9689L41.9996 25.6463L37.7417 21.3883L38.0321 20.711ZM35.7096 23.0335L36.387 22.7432L40.6449 27.0011L39.9674 27.2914L35.7096 23.0335ZM49.9348 46.0648C43.7416 46.0648 38.7095 41.0327 38.7095 34.9362C38.7095 32.904 39.1934 30.9686 40.2578 29.3235L42.1932 28.5493L49.1607 35.5168C49.3542 35.7103 49.6445 35.8071 49.8381 35.8071C50.0316 35.8071 50.3219 35.7103 50.5155 35.5168C50.9026 35.1298 50.9026 34.5491 50.5155 34.162L43.548 27.1946L44.3222 25.2592C45.9673 24.2915 47.9026 23.7108 49.9349 23.7108C56.1282 23.7108 61.1602 28.7429 61.1602 34.8394C61.0634 41.0327 56.0313 46.0648 49.9348 46.0648Z" fill="white"/>
<path d="M55.8376 28.839C54.2892 27.2906 52.1603 26.4197 49.8378 26.4197C48.7733 26.4197 47.6121 26.6132 46.6444 27.0971C46.1606 27.2906 45.8703 27.8712 46.1606 28.3551C46.3541 28.8389 46.9347 29.1292 47.4186 28.8389C48.1928 28.5486 49.0637 28.3551 49.8379 28.3551C51.5797 28.3551 53.2249 29.0324 54.4828 30.2905C55.7408 31.5485 56.4182 33.1935 56.4182 34.9354C56.4182 38.5159 53.5151 41.419 49.9346 41.419C48.1928 41.419 46.5476 40.7416 45.3865 39.4836C44.1284 38.2256 43.4511 36.5805 43.4511 34.8387C43.4511 33.9678 43.6446 33.1935 43.9349 32.4194C44.1284 31.9355 43.9349 31.3549 43.3543 31.1614C42.8704 30.9678 42.2898 31.1614 42.0963 31.742C41.7092 32.7097 41.5156 33.7741 41.5156 34.8387C41.5156 37.0644 42.3865 39.1934 44.0317 40.8384C45.58 42.3868 47.7089 43.2577 50.0314 43.2577C54.6764 43.2577 58.4505 39.4837 58.4505 34.8387C58.2568 32.613 57.3859 30.484 55.8376 28.839Z" fill="white"/>
<path d="M51.0959 31.2581C50.612 31.0645 50.0314 31.3549 49.8378 31.8387C49.6443 32.3225 49.9346 32.9032 50.4185 33.0967C51.1927 33.387 51.6765 34.0644 51.6765 34.8386C51.6765 35.8063 50.9023 36.6772 49.8379 36.6772C49.0637 36.6772 48.3863 36.1933 48.096 35.4192C47.9025 34.9353 47.4187 34.645 46.838 34.8385C46.3542 35.032 46.0639 35.516 46.2574 36.0965C46.838 37.6449 48.2895 38.6126 49.8378 38.6126C51.87 38.6126 53.6118 36.9675 53.6118 34.8386C53.6119 33.1935 52.5474 31.8387 51.0959 31.2581Z" fill="white"/>
</g>
<defs>
<filter id="filter0_d_1_1463" x="0" y="0" width="95" height="100" filterUnits="userSpaceOnUse" color-interpolation-filters="sRGB">
<feFlood flood-opacity="0" result="BackgroundImageFix"/>
<feColorMatrix in="SourceAlpha" type="matrix" values="0 0 0 0 0 0 0 0 0 0 0 0 0 0 0 0 0 0 127 0" result="hardAlpha"/>
<feMorphology radius="20" operator="erode" in="SourceAlpha" result="effect1_dropShadow_1_1463"/>
<feOffset dy="20"/>
<feGaussianBlur stdDeviation="17.5"/>
<feColorMatrix type="matrix" values="0 0 0 0 0 0 0 0 0 0.109804 0 0 0 0 0.686275 0 0 0 0.4 0"/>
<feBlend mode="normal" in2="BackgroundImageFix" result="effect1_dropShadow_1_1463"/>
<feBlend mode="normal" in="SourceGraphic" in2="effect1_dropShadow_1_1463" result="shape"/>
</filter>
<clipPath id="clip0_1_1463">
<rect width="30" height="30" fill="white" transform="translate(33 18)"/>
</clipPath>
</defs>
</svg>
