<svg width="88" height="88" viewBox="0 0 88 88" fill="none" xmlns="http://www.w3.org/2000/svg">
<circle cx="44" cy="44" r="44" fill="#F3EBFF"/>
<g clip-path="url(#clip0_1_1277)" filter="url(#filter0_d_1_1277)">
<path d="M49.8014 39.5035C50.0709 40.2576 49.9099 41.1419 49.2946 41.7573C48.4512 42.6007 47.0861 42.6008 46.2426 41.7573C45.3992 40.9139 45.399 39.5488 46.2426 38.7053C46.8549 38.0929 47.7396 37.928 48.4964 38.1984L54.6949 32L41.1611 34.5063L37.3633 43.0514C37.5939 43.282 44.1406 49.8288 44.9486 50.6367L44.9486 50.6367L53.4937 46.8389L55.9999 33.3051L49.8014 39.5035Z" fill="#7118EF"/>
<path d="M35.052 42.7747L32 45.8267L42.1734 56.0001L45.2254 52.9481C44.5199 52.2426 35.5623 43.285 35.052 42.7747Z" fill="#7118EF"/>
<path d="M47.0493 40.2314C47.0493 40.6289 47.3712 40.9507 47.7687 40.9507C47.9608 40.9507 48.1415 40.8759 48.2773 40.7401L48.2773 40.74C48.5584 40.4589 48.5584 40.0039 48.2773 39.7226C48.1415 39.5868 47.9608 39.512 47.7687 39.512C47.3711 39.512 47.0493 39.8338 47.0493 40.2314Z" fill="#7118EF"/>
</g>
<defs>
<filter id="filter0_d_1_1277" x="17" y="27" width="54" height="54" filterUnits="userSpaceOnUse" color-interpolation-filters="sRGB">
<feFlood flood-opacity="0" result="BackgroundImageFix"/>
<feColorMatrix in="SourceAlpha" type="matrix" values="0 0 0 0 0 0 0 0 0 0 0 0 0 0 0 0 0 0 127 0" result="hardAlpha"/>
<feOffset dy="10"/>
<feGaussianBlur stdDeviation="7.5"/>
<feColorMatrix type="matrix" values="0 0 0 0 0.443137 0 0 0 0 0.0941176 0 0 0 0 0.937255 0 0 0 0.2 0"/>
<feBlend mode="normal" in2="BackgroundImageFix" result="effect1_dropShadow_1_1277"/>
<feBlend mode="normal" in="SourceGraphic" in2="effect1_dropShadow_1_1277" result="shape"/>
</filter>
<clipPath id="clip0_1_1277">
<rect width="24" height="24" fill="white" transform="translate(32 32)"/>
</clipPath>
</defs>
</svg>
